<svg id="Слой_1" data-name="Слой 1" xmlns="http://www.w3.org/2000/svg" xmlns:xlink="http://www.w3.org/1999/xlink" viewBox="0 0 281.54 175.72"><defs><style>.cls-1,.cls-10,.cls-11,.cls-12,.cls-13,.cls-14,.cls-15,.cls-16,.cls-17,.cls-18,.cls-19,.cls-20,.cls-21,.cls-22,.cls-23,.cls-24,.cls-25,.cls-26,.cls-27,.cls-28,.cls-29,.cls-30,.cls-31,.cls-32,.cls-33,.cls-34,.cls-35,.cls-36,.cls-37,.cls-38,.cls-39,.cls-4,.cls-40,.cls-41,.cls-42,.cls-43,.cls-44,.cls-45,.cls-46,.cls-47,.cls-48,.cls-49,.cls-5,.cls-50,.cls-51,.cls-52,.cls-53,.cls-54,.cls-55,.cls-56,.cls-57,.cls-58,.cls-59,.cls-6,.cls-60,.cls-61,.cls-62,.cls-63,.cls-64,.cls-65,.cls-66,.cls-67,.cls-7,.cls-8,.cls-9{fill:none;}.cls-2{fill:url(#Безымянный_градиент);}.cls-3{clip-path:url(#clip-path);}.cls-10,.cls-11,.cls-12,.cls-13,.cls-14,.cls-15,.cls-16,.cls-17,.cls-18,.cls-19,.cls-20,.cls-21,.cls-22,.cls-23,.cls-24,.cls-25,.cls-26,.cls-27,.cls-28,.cls-29,.cls-30,.cls-31,.cls-32,.cls-33,.cls-34,.cls-35,.cls-36,.cls-37,.cls-38,.cls-39,.cls-4,.cls-40,.cls-41,.cls-42,.cls-43,.cls-44,.cls-45,.cls-46,.cls-47,.cls-48,.cls-49,.cls-5,.cls-50,.cls-51,.cls-52,.cls-53,.cls-54,.cls-55,.cls-56,.cls-57,.cls-58,.cls-59,.cls-6,.cls-60,.cls-61,.cls-62,.cls-63,.cls-64,.cls-65,.cls-66,.cls-67,.cls-7,.cls-8,.cls-9{stroke:#ff9c1a;stroke-miterlimit:10;}.cls-4{stroke-width:3px;}.cls-5{stroke-width:2.96px;opacity:0.99;}.cls-10,.cls-11,.cls-12,.cls-13,.cls-14,.cls-15,.cls-16,.cls-17,.cls-18,.cls-19,.cls-20,.cls-21,.cls-22,.cls-23,.cls-24,.cls-25,.cls-26,.cls-27,.cls-28,.cls-29,.cls-30,.cls-31,.cls-32,.cls-33,.cls-34,.cls-35,.cls-36,.cls-37,.cls-38,.cls-39,.cls-40,.cls-41,.cls-42,.cls-43,.cls-44,.cls-45,.cls-46,.cls-47,.cls-48,.cls-49,.cls-5,.cls-50,.cls-51,.cls-52,.cls-53,.cls-54,.cls-55,.cls-56,.cls-57,.cls-58,.cls-59,.cls-6,.cls-60,.cls-61,.cls-62,.cls-63,.cls-64,.cls-65,.cls-66,.cls-67,.cls-7,.cls-8,.cls-9{isolation:isolate;}.cls-6{stroke-width:2.92px;opacity:0.98;}.cls-7{stroke-width:2.87px;opacity:0.97;}.cls-8{stroke-width:2.83px;opacity:0.96;}.cls-9{stroke-width:2.79px;opacity:0.94;}.cls-10{stroke-width:2.75px;opacity:0.93;}.cls-11{stroke-width:2.71px;opacity:0.92;}.cls-12{stroke-width:2.66px;opacity:0.91;}.cls-13{stroke-width:2.62px;opacity:0.9;}.cls-14{stroke-width:2.58px;opacity:0.89;}.cls-15{stroke-width:2.54px;opacity:0.88;}.cls-16{stroke-width:2.49px;opacity:0.87;}.cls-17{stroke-width:2.45px;opacity:0.86;}.cls-18{stroke-width:2.41px;opacity:0.84;}.cls-19{stroke-width:2.37px;opacity:0.83;}.cls-20{stroke-width:2.33px;opacity:0.82;}.cls-21{stroke-width:2.28px;opacity:0.81;}.cls-22{stroke-width:2.24px;opacity:0.8;}.cls-23{stroke-width:2.2px;opacity:0.79;}.cls-24{stroke-width:2.16px;opacity:0.78;}.cls-25{stroke-width:2.12px;opacity:0.77;}.cls-26{stroke-width:2.07px;opacity:0.76;}.cls-27{stroke-width:2.03px;opacity:0.74;}.cls-28{stroke-width:1.99px;opacity:0.73;}.cls-29{stroke-width:1.95px;opacity:0.72;}.cls-30{stroke-width:1.91px;opacity:0.71;}.cls-31{stroke-width:1.86px;opacity:0.7;}.cls-32{stroke-width:1.82px;opacity:0.69;}.cls-33{stroke-width:1.78px;opacity:0.68;}.cls-34{stroke-width:1.74px;opacity:0.67;}.cls-35{stroke-width:1.69px;opacity:0.66;}.cls-36{stroke-width:1.65px;opacity:0.64;}.cls-37{stroke-width:1.61px;opacity:0.63;}.cls-38{stroke-width:1.57px;opacity:0.62;}.cls-39{stroke-width:1.53px;opacity:0.61;}.cls-40{stroke-width:1.48px;opacity:0.6;}.cls-41{stroke-width:1.44px;opacity:0.59;}.cls-42{stroke-width:1.4px;opacity:0.58;}.cls-43{stroke-width:1.36px;opacity:0.57;}.cls-44{stroke-width:1.32px;opacity:0.56;}.cls-45{stroke-width:1.27px;opacity:0.54;}.cls-46{stroke-width:1.23px;opacity:0.53;}.cls-47{stroke-width:1.19px;opacity:0.52;}.cls-48{stroke-width:1.15px;opacity:0.51;}.cls-49{stroke-width:1.11px;opacity:0.5;}.cls-50{stroke-width:1.06px;opacity:0.49;}.cls-51{stroke-width:1.02px;opacity:0.48;}.cls-52{stroke-width:0.98px;opacity:0.47;}.cls-53{stroke-width:0.94px;opacity:0.46;}.cls-54{stroke-width:0.89px;opacity:0.44;}.cls-55{stroke-width:0.85px;opacity:0.43;}.cls-56{stroke-width:0.81px;opacity:0.42;}.cls-57{stroke-width:0.77px;opacity:0.41;}.cls-58{stroke-width:0.73px;opacity:0.4;}.cls-59{stroke-width:0.68px;opacity:0.39;}.cls-60{stroke-width:0.64px;opacity:0.38;}.cls-61{stroke-width:0.6px;opacity:0.37;}.cls-62{stroke-width:0.56px;opacity:0.36;}.cls-63{stroke-width:0.52px;opacity:0.34;}.cls-64{stroke-width:0.47px;opacity:0.33;}.cls-65{stroke-width:0.43px;opacity:0.32;}.cls-66{stroke-width:0.39px;opacity:0.31;}.cls-67{stroke-width:0.35px;opacity:0.3;}</style><linearGradient id="Безымянный_градиент" x1="-233.61" y1="122.45" x2="-48.28" y2="434.77" gradientTransform="matrix(0, -1, -1, 0, 431.15, -46.1)" gradientUnits="userSpaceOnUse"><stop offset="0" stop-color="#ce941d"/><stop offset="1" stop-color="#ff0d97"/></linearGradient><clipPath id="clip-path"><rect class="cls-1" width="281.54" height="175.72"/></clipPath></defs><title>Монтажная область 1</title><g id="Слой_2" data-name="Слой 2"><g id="OBJECTS"><rect class="cls-2" width="281.54" height="175.72"/><g class="cls-3"><path class="cls-4" d="M297.76,330.84c-23.32-1.26-48.29-16.32-66.11-28.7a183.67,183.67,0,0,1-47.94-48.22c-10.15-15.17-17.67-31.67-28.59-46.42-10.49-14.18-25.88-26.11-44.34-31.36-21.35-6.07-41.7,1-61.56,7.83C29.58,190.76,9.74,194.05-11,189.49c-19.16-4.22-36.84-14-48.92-27.8-22-25.23-26-63.62-10-95.92"/><path class="cls-5" d="M-70.29,60.33c-14.33,29-11.85,63.15,5.8,87.77q2.31,3.21,4.92,6.17c12.1,13.64,29.7,23.27,48.72,27.52a94,94,0,0,0,29.64,1.74,135.41,135.41,0,0,0,30.08-6.72c7.17-2.4,14.41-4.82,21.74-6.62,12.76-3.15,25.8-4.44,39.26-.58a80.61,80.61,0,0,1,14.74,5.91,88.31,88.31,0,0,1,29.47,25.06c8.14,10.79,14.43,22.52,21.31,34,2.36,3.93,4.79,7.83,7.39,11.65A187.49,187.49,0,0,0,230.6,294c17.74,12.36,42.42,27.45,65.3,28.95"/><path class="cls-6" d="M-70.46,55.15c-13.91,28.27-11.14,61.7,6.57,85.9,1.53,2.09,3.18,4.12,4.93,6.07,12.11,13.42,29.63,22.95,48.52,27.23A95,95,0,0,0,19,176.25a134.82,134.82,0,0,0,29.79-6.33c7.1-2.29,14.26-4.6,21.52-6.31,12.63-3,25.56-4.14,38.93-.26a81.18,81.18,0,0,1,14.66,5.88,89.44,89.44,0,0,1,29.41,24.68c8.15,10.6,14.48,22.12,21.4,33.4,2.37,3.86,4.81,7.7,7.42,11.46A191.1,191.1,0,0,0,229.8,286c17.65,12.35,42,27.48,64.49,29.2"/><path class="cls-7" d="M-70.37,50.23c-13.5,27.54-10.44,60.24,7.33,84q2.31,3.09,4.94,6c12.12,13.2,29.56,22.63,48.32,26.94a96.43,96.43,0,0,0,29.19,2.07,133.7,133.7,0,0,0,29.49-6c7-2.18,14.12-4.38,21.31-6,12.5-2.82,25.32-3.84,38.59.06a83,83,0,0,1,14.57,5.85,90.53,90.53,0,0,1,29.34,24.3c8.17,10.42,14.55,21.72,21.49,32.81,2.39,3.8,4.84,7.58,7.45,11.28a196.41,196.41,0,0,0,47.58,46.72c17.58,12.38,41.64,27.49,63.69,29.49"/><path class="cls-8" d="M-70,45.55a78.85,78.85,0,0,0,8.1,82.2q2.31,3,4.94,5.87c12.13,13,29.49,22.31,48.12,26.65a97.18,97.18,0,0,0,29,2.24,133.31,133.31,0,0,0,29.21-5.58c7-2.08,14-4.17,21.09-5.68,12.37-2.65,25.07-3.55,38.25.37a85.7,85.7,0,0,1,14.49,5.83,91.53,91.53,0,0,1,29.29,23.93c8.17,10.22,14.59,21.31,21.57,32.2,2.4,3.74,4.86,7.46,7.48,11.1A200.67,200.67,0,0,0,229,270.9c17.5,12.32,41.3,27.51,62.89,29.7"/><path class="cls-9" d="M-69.48,41.11c-12.67,26.08-9,57.33,8.87,80.27a73.44,73.44,0,0,0,5,5.77c12.14,12.77,29.42,22,47.92,26.36A98.46,98.46,0,0,0,21,155.92a132.8,132.8,0,0,0,28.93-5.2c6.88-2,13.82-3.95,20.87-5.37,12.24-2.48,24.83-3.24,37.91.69a87.09,87.09,0,0,1,14.4,5.81,92.64,92.64,0,0,1,29.23,23.54C160.52,185.39,167,196.3,174,207c2.4,3.67,4.88,7.32,7.51,10.91,12.61,17.16,28.87,32.71,47.34,45.72,17.42,12.31,40.92,27.53,62.07,29.95"/><path class="cls-10" d="M-68.69,36.9C-80.95,62.25-77,92.75-59.06,115.3a73.49,73.49,0,0,0,5,5.67C-41.91,133.51-24.7,142.64-6.34,147a99.79,99.79,0,0,0,28.51,2.57,132.78,132.78,0,0,0,28.6-4.86c6.81-1.86,13.68-3.73,20.65-5,12.12-2.32,24.59-3,37.57,1a88.84,88.84,0,0,1,14.32,5.79,93.87,93.87,0,0,1,29.17,23.16c8.21,9.85,14.71,20.5,21.76,31,2.41,3.61,4.9,7.2,7.54,10.73,12.65,16.89,28.89,32.27,47.22,45.22,17.34,12.29,40.54,27.55,61.27,30.19"/><path class="cls-11" d="M-67.69,32.91c-11.84,24.63-7.61,54.42,10.41,76.52a70.4,70.4,0,0,0,5,5.57C-40.13,127.33-23,136.36-4.8,140.75a101.63,101.63,0,0,0,28.29,2.75,132.3,132.3,0,0,0,28.38-4.42c6.74-1.75,13.53-3.51,20.43-4.73,12-2.16,24.35-2.65,37.24,1.31a91,91,0,0,1,14.23,5.77,94.75,94.75,0,0,1,29.1,22.78c8.23,9.64,14.76,20.1,21.84,30.43,2.43,3.54,4.92,7.07,7.57,10.55C195,221.8,211.18,237,229.38,249.9c17.26,12.28,40.16,27.57,60.46,30.44"/><path class="cls-12" d="M-66.47,29.14C-77.9,53-73.33,82.06-55.3,103.75a72.93,72.93,0,0,0,5,5.46C-38.13,121.36-21.13,130.29-3,134.75a102.8,102.8,0,0,0,28.06,2.92,132.34,132.34,0,0,0,28.06-4.07c6.67-1.64,13.39-3.3,20.21-4.42,11.87-2,24.11-2.35,36.91,1.63a92.35,92.35,0,0,1,14.15,5.74A96.38,96.38,0,0,1,153.43,159c8.25,9.45,14.82,19.69,21.93,29.83,2.44,3.48,4.95,7,7.6,10.36,12.74,16.34,28.92,31.39,47,44.21,17.18,12.28,39.79,27.6,59.66,30.7"/><path class="cls-13" d="M-65,25.57C-76.06,48.75-71.2,77-53.13,98.35c1.57,1.84,3.22,3.63,5,5.36C-35.95,115.61-19,124.43-1,128.91A104.43,104.43,0,0,0,26.87,132a132.11,132.11,0,0,0,27.78-3.69c6.59-1.53,13.23-3.07,20-4.1,11.74-1.82,23.86-2,36.57,2a95.23,95.23,0,0,1,14.06,5.72,97.84,97.84,0,0,1,29,22c8.26,9.26,14.88,19.29,22,29.24,2.45,3.41,5,6.82,7.63,10.18,12.78,16.07,28.93,30.94,46.86,43.71,17.1,12.26,39.41,27.61,58.85,30.94"/><path class="cls-14" d="M-63.43,22.2c-10.6,22.44-5.44,50,12.71,70.91,1.57,1.8,3.22,3.57,5,5.26,12.17,11.7,29.08,20.41,46.92,24.91a106.16,106.16,0,0,0,27.61,3.25,132.52,132.52,0,0,0,27.49-3.31c6.52-1.43,13.09-2.86,19.77-3.79,11.61-1.65,23.62-1.75,36.23,2.26a97.79,97.79,0,0,1,14,5.7A99.57,99.57,0,0,1,155.24,149c8.28,9.07,14.94,18.89,22.11,28.65,2.46,3.34,5,6.69,7.66,10,12.82,15.8,29,30.5,46.74,43.21,17,12.25,39,27.63,58,31.2"/><path class="cls-15" d="M-61.62,19c-10.19,21.72-4.73,48.55,13.49,69,1.57,1.77,3.22,3.5,5,5.16,12.15,11.53,29,20.09,46.69,24.63A108.6,108.6,0,0,0,31,121.26a131.63,131.63,0,0,0,27.2-2.94c6.45-1.31,12.94-2.63,19.55-3.47,11.48-1.48,23.38-1.44,35.89,2.58a103.18,103.18,0,0,1,42.78,26.94c8.3,8.87,15,18.48,22.2,28,2.47,3.28,5,6.57,7.69,9.81,12.87,15.53,29,30.06,46.62,42.71,16.94,12.23,38.66,27.65,57.24,31.44"/><path class="cls-16" d="M-59.63,16c-9.77,21-4,47.09,14.24,67.16,1.58,1.73,3.23,3.43,5,5.06C-28.2,99.53-11.39,108,6.13,112.6a111.19,111.19,0,0,0,27.17,3.58,132.87,132.87,0,0,0,26.91-2.56c6.38-1.21,12.8-2.42,19.33-3.16,11.36-1.32,23.14-1.15,35.56,2.89a106.43,106.43,0,0,1,42.64,26.54c8.31,8.68,15,18.07,22.28,27.46,2.49,3.21,5,6.44,7.72,9.63,12.91,15.25,29,29.61,46.5,42.2,16.86,12.22,38.29,27.67,56.43,31.69"/><path class="cls-17" d="M-57.47,13.23c-9.35,20.26-3.31,45.63,15,65.29,1.58,1.69,3.24,3.36,5,5,12.2,11.06,28.88,19.45,46.32,24a113,113,0,0,0,26.94,3.75,132.78,132.78,0,0,0,26.62-2.18c6.31-1.1,12.65-2.2,19.12-2.84,11.22-1.16,22.9-.85,35.22,3.2a107.83,107.83,0,0,1,13.73,5.63,105.64,105.64,0,0,1,28.76,20.51c8.33,8.49,15.1,17.67,22.37,26.86,2.5,3.15,5.06,6.32,7.75,9.45,13,15,29,29.13,46.39,41.7,16.8,12.17,37.91,27.69,55.62,31.94"/><path class="cls-18" d="M-55.13,10.59C-64.07,30.12-57.73,54.76-39.35,74c1.58,1.66,3.24,3.29,5,4.86C-22.13,89.75-5.54,98,11.76,102.62a116,116,0,0,0,26.72,3.91,134.26,134.26,0,0,0,26.33-1.8c6.24-1,12.51-2,18.9-2.53,11.1-1,22.66-.54,34.88,3.52a111.81,111.81,0,0,1,13.65,5.61A108,108,0,0,1,161,131.46c8.33,8.29,15.15,17.29,22.45,26.29,2.51,3.08,5.08,6.18,7.78,9.26,13,14.7,29,28.69,46.27,41.2,16.72,12.15,37.53,27.71,54.82,32.19"/><path class="cls-19" d="M-52.65,8.12c-8.48,18.79-1.9,42.7,16.52,61.53,1.59,1.62,3.25,3.22,5,4.75C-18.88,85-2.35,93.22,14.87,97.88A120.54,120.54,0,0,0,41.36,102a137.61,137.61,0,0,0,26.05-1.43c6.16-.89,12.36-1.75,18.68-2.21,11-.79,22.41-.24,34.55,3.84a117.08,117.08,0,0,1,13.51,5.59A111,111,0,0,1,162.8,127.5c8.35,8.11,15.21,16.86,22.54,25.67,2.52,3,5.1,6.07,7.81,9.08,13,14.44,29.06,28.25,46.15,40.7,16.64,12.14,37.16,27.73,54,32.44"/><path class="cls-20" d="M-50,5.75C-58.13,23.82-51.2,47-32.7,65.42c1.59,1.58,3.25,3.15,5,4.65C-15.47,80.48,1,88.57,18,93.25A123.71,123.71,0,0,0,44.29,97.5a138.66,138.66,0,0,0,25.76-1c6.09-.78,12.21-1.53,18.46-1.89,10.84-.63,22.17,0,34.21,4.15a121.66,121.66,0,0,1,13.48,5.56,114,114,0,0,1,28.59,19.37c8.36,7.91,15.27,16.45,22.63,25.08,2.54,3,5.12,5.94,7.84,8.89,13.06,14.19,29.08,27.8,46,40.2,16.56,12.12,36.78,27.75,53.2,32.69"/><path class="cls-21" d="M-47.23,3.62C-54.93,21-47.71,43.4-29.15,61.41c1.59,1.55,3.26,3.08,5,4.55C-11.91,76.15,4.46,84.14,21.37,88.85a127.28,127.28,0,0,0,26,4.42,140.75,140.75,0,0,0,25.47-.67c6-.68,12.07-1.31,18.24-1.58,10.72-.46,21.93.35,33.88,4.46a129.4,129.4,0,0,1,13.4,5.55,116.9,116.9,0,0,1,28.52,19c8.38,7.72,15.33,16,22.72,24.48,2.55,2.89,5.14,5.81,7.87,8.71,13.1,13.92,29.1,27.36,45.91,39.7,16.49,12.1,36.41,27.76,52.4,32.94"/><path class="cls-22" d="M-44.32,1.58c-7.28,16.62.23,38.33,18.85,55.92,1.6,1.51,3.27,3,5,4.45C-8.22,72,8.07,79.81,24.84,84.55a131.5,131.5,0,0,0,25.82,4.59,143.42,143.42,0,0,0,25.21-.29c6-.57,11.92-1.1,18-1.27a91.85,91.85,0,0,1,33.54,4.78,133.19,133.19,0,0,1,13.31,5.52,120.56,120.56,0,0,1,28.47,18.61c8.39,7.53,15.38,15.64,22.81,23.89,2.56,2.83,5.16,5.69,7.9,8.53C213,162.55,229,175.82,245.69,188.1c16.41,12.09,36,27.79,51.59,33.19"/><path class="cls-23" d="M-41.27-.32c-6.87,15.89.93,36.86,19.61,54,1.61,1.47,3.27,2.94,5,4.34,12.25,9.77,28.47,17.55,45.11,22.32a137.32,137.32,0,0,0,25.6,4.75,145.81,145.81,0,0,0,24.9.09c5.87-.47,11.77-.88,17.8-1A93.92,93.92,0,0,1,130,89.32a140.18,140.18,0,0,1,13.23,5.5,124.6,124.6,0,0,1,28.41,18.23c8.4,7.34,15.44,15.23,22.9,23.29,2.57,2.77,5.18,5.57,7.92,8.35,13.19,13.37,29.14,26.47,45.67,38.69,16.34,12.08,35.66,27.8,50.79,33.44"/><path class="cls-24" d="M-38.13-2.09c-6.45,15.15,1.64,35.4,20.39,52.17,1.6,1.44,3.27,2.87,5,4.24,12.27,9.55,28.41,17.23,44.92,22a141.3,141.3,0,0,0,25.37,4.92,148.84,148.84,0,0,0,24.62.46c5.8-.35,11.61-.66,17.58-.63a96.74,96.74,0,0,1,32.86,5.41c4.48,1.6,8.87,3.46,13.15,5.47a129.82,129.82,0,0,1,28.35,17.85c8.41,7.15,15.49,14.83,23,22.7,2.58,2.7,5.21,5.44,8,8.16,13.23,13.11,29.15,26,45.55,38.2s35.28,27.82,50,33.68"/><path class="cls-25" d="M-34.83-3.75c-6,14.42,2.35,33.94,21.15,50.3,1.61,1.4,3.28,2.8,5,4.14C3.6,60,19.67,67.6,36,72.43a147.53,147.53,0,0,0,25.15,5.09,153.14,153.14,0,0,0,24.32.84c5.73-.25,11.48-.44,17.37-.32a99.25,99.25,0,0,1,32.56,5.71c4.44,1.61,8.81,3.46,13.07,5.45a135.09,135.09,0,0,1,28.29,17.48c8.43,6.95,15.55,14.42,23.07,22.1,2.59,2.63,5.23,5.31,8,8,13.27,12.83,29.17,25.58,45.43,37.69s34.9,27.84,49.17,33.94"/><path class="cls-26" d="M-31.45-5.25c-5.62,13.7,3.06,32.48,21.92,48.42,1.62,1.37,3.29,2.74,5,4C7.81,56.28,23.79,63.76,40,68.62A154.64,154.64,0,0,0,65,73.87a156.55,156.55,0,0,0,24,1.22c5.65-.14,11.32-.22,17.14,0a102.8,102.8,0,0,1,32.19,6c4.41,1.62,8.74,3.46,13,5.43a140.59,140.59,0,0,1,28.24,17.1c8.44,6.76,15.6,14,23.16,21.51,2.6,2.57,5.25,5.18,8,7.79C224,145.48,239.88,158.06,256,170.11S290.53,198,304.37,204.3"/><path class="cls-27" d="M-28-6.74c-5.21,13,3.76,31,22.69,46.55C-3.66,41.14-2,42.47-.23,43.75,12.07,52.65,28,60,44.09,64.91a161.72,161.72,0,0,0,24.7,5.42,161.27,161.27,0,0,0,23.75,1.6c5.58,0,11.18,0,16.92.31a106.76,106.76,0,0,1,31.86,6.35c4.37,1.62,8.67,3.46,12.89,5.41a147.56,147.56,0,0,1,28.18,16.75c8.45,6.57,15.66,13.62,23.25,20.92,2.61,2.5,5.27,5.06,8,7.61C227,141.57,242.85,154,258.84,166S293,193.85,306.4,200.4"/><path class="cls-28" d="M-24.4-8.09C-29.19,4.15-19.93,21.47-.94,36.58c1.62,1.3,3.29,2.6,5.06,3.84,12.31,8.69,28.14,16,44.11,20.88a170.8,170.8,0,0,0,24.48,5.59,166,166,0,0,0,23.46,2c5.51.08,11,.22,16.71.63a110.43,110.43,0,0,1,31.51,6.66c4.34,1.63,8.61,3.46,12.82,5.39A154.28,154.28,0,0,1,185.32,97.9c8.47,6.38,15.72,13.21,23.34,20.32,2.63,2.44,5.29,4.94,8.08,7.43,13.4,12,29.21,24.25,45.07,36.19s33.78,27.9,46.75,34.68"/><path class="cls-29" d="M-20.75-9.35c-4.38,11.51,5.18,28.1,24.23,42.8C5.1,34.71,6.78,36,8.54,37.19c12.33,8.47,28.08,15.64,43.92,20.58a180,180,0,0,0,24.25,5.76,173.09,173.09,0,0,0,23.16,2.35c5.44.18,10.88.44,16.48.94a115.85,115.85,0,0,1,31.18,7c4.3,1.64,8.55,3.46,12.73,5.37a162.86,162.86,0,0,1,28.06,16c8.48,6.19,15.77,12.8,23.42,19.73,2.64,2.37,5.32,4.81,8.11,7.24,13.46,11.68,29.25,23.74,45,35.59s33.35,28,45.9,35"/><path class="cls-30" d="M-17-10.53C-21,.25-11.14,16.11,8,30.4c1.63,1.22,3.31,2.45,5.07,3.63,12.34,8.26,28,15.32,43.72,20.3a191.94,191.94,0,0,0,24,5.92A180,180,0,0,0,103.67,63c5.36.29,10.73.66,16.26,1.26a120.76,120.76,0,0,1,30.84,7.3c4.27,1.63,8.49,3.45,12.65,5.34a174.07,174.07,0,0,1,28,15.57,283.55,283.55,0,0,1,23.51,19.13c2.65,2.31,5.34,4.69,8.14,7.07,13.49,11.47,29.25,23.36,44.83,35.18,15.78,12,33,27.94,45.14,35.18"/><path class="cls-31" d="M-13.22-11.64C-16.77-1.58-6.64,13.54,12.53,27.42c1.64,1.18,3.32,2.38,5.08,3.53C30,39,45.55,46,61.13,51A207.55,207.55,0,0,0,84.93,57a188.89,188.89,0,0,0,22.6,3.11c5.3.4,10.59.87,16,1.57a127.77,127.77,0,0,1,30.5,7.61c4.23,1.64,8.42,3.45,12.57,5.32a186.35,186.35,0,0,1,27.94,15.19,283.33,283.33,0,0,1,23.6,18.54c2.66,2.25,5.36,4.56,8.16,6.88,13.54,11.2,29.27,22.92,44.72,34.68,15.7,12,32.65,28,44.33,35.43"/><path class="cls-32" d="M-9.37-12.68C-12.5-3.35-2.08,11,17.16,24.5c1.63,1.15,3.32,2.31,5.08,3.43C34.6,35.76,50.11,42.62,65.56,47.65a223.5,223.5,0,0,0,23.57,6.26,200.3,200.3,0,0,0,22.32,3.49c5.22.5,10.44,1.09,15.82,1.88a135.13,135.13,0,0,1,30.17,7.93c4.2,1.65,8.36,3.45,12.49,5.3a201,201,0,0,1,27.88,14.81,281.74,281.74,0,0,1,23.69,18c2.67,2.17,5.38,4.43,8.19,6.69,13.57,10.93,29.28,22.48,44.6,34.18,15.62,11.94,32.27,28,43.52,35.68"/><path class="cls-33" d="M-5.46-13.66c-2.67,8.59,8,22.26,27.33,35.31C23.51,22.76,25.2,23.89,27,25c12.37,7.61,27.8,14.37,43.12,19.44,8.19,2.72,16,4.76,23.35,6.42a210,210,0,0,0,22,3.86c5.15.62,10.29,1.31,15.6,2.21a142.91,142.91,0,0,1,29.84,8.24c4.15,1.66,8.29,3.45,12.39,5.27a217.69,217.69,0,0,1,27.83,14.44,276.86,276.86,0,0,1,23.78,17.35c2.69,2.11,5.41,4.3,8.23,6.51,13.62,10.66,29.3,22,44.47,33.68,15.55,11.92,31.9,28,42.73,35.93"/><path class="cls-34" d="M-1.51-14.59C-3.82-6.73,7.18,6.21,26.55,18.84c1.64,1.07,3.33,2.17,5.1,3.23,12.38,7.39,27.73,14,42.91,19.14C82.69,44,90.43,46.05,97.69,47.8c7.66,1.86,14.75,3.25,21.74,4.24,5.08.73,10.14,1.53,15.39,2.52a154.37,154.37,0,0,1,29.49,8.56c4.12,1.66,8.23,3.45,12.32,5.25a240,240,0,0,1,27.76,14.06,276.32,276.32,0,0,1,23.87,16.75c2.69,2,5.42,4.18,8.25,6.33,13.66,10.39,29.36,21.59,44.36,33.17,15.46,11.91,31.52,28,41.91,36.18"/><path class="cls-35" d="M2.48-15.48C.59-8.34,11.88,3.86,31.3,16.08c1.65,1,3.34,2.1,5.11,3.12C48.8,26.38,64.07,32.94,79.12,38.06,87.18,40.81,94.85,43,102,44.82c7.58,2,14.58,3.47,21.46,4.62,5,.83,10,1.74,15.17,2.83a166.82,166.82,0,0,1,29.16,8.87c4.08,1.67,8.16,3.45,12.23,5.23a266.66,266.66,0,0,1,27.7,13.68,275.08,275.08,0,0,1,24,16.16c2.71,2,5.45,4,8.28,6.14,13.71,10.12,29.33,21.15,44.24,32.68,15.38,11.89,31.14,28,41.11,36.43"/><path class="cls-36" d="M6.5-16.34C5-9.93,16.6,1.55,36.09,13.35c1.65,1,3.34,2,5.11,3,12.4,7,27.6,13.42,42.52,18.57,8,2.77,15.59,5,22.67,6.93,7.49,2,14.39,3.7,21.17,5,4.94.94,9.85,2,14.95,3.15a184.36,184.36,0,0,1,28.82,9.19c4,1.67,8.1,3.44,12.15,5.2,10.08,4.41,19.49,8.68,27.65,13.3a275.69,275.69,0,0,1,24,15.57c2.72,1.92,5.47,3.92,8.31,6,13.75,9.84,29.35,20.71,44.12,32.17,15.3,11.88,30.77,28,40.3,36.68"/><path class="cls-37" d="M10.54-17.16C9.47-11.48,21.34-.73,40.87,10.65c1.65,1,3.35,2,5.11,2.92A298.83,298.83,0,0,0,88.3,31.85c7.92,2.79,15.45,5.07,22.45,7.1,7.41,2.14,14.2,3.93,20.88,5.37,4.87,1,9.7,2.18,14.73,3.46a202.56,202.56,0,0,1,28.49,9.5c4,1.69,8,3.45,12.06,5.19,10,4.35,19.42,8.47,27.59,12.92a272.56,272.56,0,0,1,24.13,15c2.73,1.85,5.49,3.8,8.34,5.78,13.8,9.57,29.37,20.26,44,31.67,15.22,11.87,30.4,28.07,39.5,36.93"/><path class="cls-38" d="M14.59-18C13.94-13,26.1-3,45.72,8c1.66.93,3.36,1.9,5.12,2.82A333.28,333.28,0,0,0,93,28.79c7.85,2.81,15.31,5.15,22.22,7.27,7.33,2.24,14,4.16,20.6,5.75,4.79,1.15,9.55,2.4,14.51,3.78a227.58,227.58,0,0,1,28.15,9.81c4,1.69,8,3.44,12,5.16,10,4.3,19.33,8.27,27.53,12.54a272.14,272.14,0,0,1,24.22,14.38c2.74,1.79,5.51,3.67,8.37,5.59,13.84,9.3,29.38,19.83,43.88,31.17,15.14,11.86,30,28.09,38.69,37.18"/><path class="cls-39" d="M18.65-18.76c-.23,4.23,12.22,13.51,31.9,24.07,1.66.89,3.36,1.82,5.13,2.72A387.38,387.38,0,0,0,97.59,25.75c7.79,2.82,15.17,5.22,22,7.43,7.24,2.34,13.84,4.39,20.31,6.13,4.72,1.26,9.41,2.61,14.29,4.09A261.08,261.08,0,0,1,182,53.53c3.94,1.69,7.9,3.44,11.89,5.14,9.91,4.24,19.26,8.07,27.47,12.16a275.58,275.58,0,0,1,24.31,13.78c2.75,1.73,5.54,3.55,8.4,5.41,13.88,9,29.4,19.38,43.76,30.67,15,11.82,29.64,28.06,37.88,37.41"/><path class="cls-40" d="M22.71-19.54C22.89-16,35.62-7.48,55.38,2.65c1.66.86,3.36,1.75,5.13,2.62C73,11.36,87.84,17.41,102.23,22.68c7.72,2.84,15,5.3,21.77,7.6,7.15,2.44,13.65,4.62,20,6.5,4.65,1.38,9.26,2.84,14.08,4.41,8.28,2.71,17.34,6,27.47,10.45,3.91,1.7,7.84,3.44,11.81,5.11,9.85,4.19,19.18,7.87,27.42,11.79a274.71,274.71,0,0,1,24.41,13.21c2.77,1.66,5.56,3.42,8.43,5.23,13.93,8.76,29.42,18.94,43.64,30.17,15,11.82,29.27,28.13,37.08,37.67"/><path class="cls-41" d="M26.76-20.33C27.35-17.56,40.37-9.72,60.19,0c1.67.82,3.37,1.68,5.14,2.51,12.46,5.88,27.26,11.84,41.51,17.13,7.65,2.86,14.89,5.37,21.55,7.76,7.07,2.54,13.47,4.86,19.74,6.89,4.58,1.48,9.11,3,13.85,4.72,8.15,2.88,17.1,6.35,27.14,10.76,3.87,1.71,7.78,3.44,11.73,5.1,9.79,4.12,19.09,7.65,27.35,11.4a271.9,271.9,0,0,1,24.49,12.59c2.77,1.6,5.58,3.3,8.46,5,14,8.49,29.43,18.5,43.52,29.67,14.9,11.81,28.89,28.15,36.27,37.93"/><path class="cls-42" d="M30.77-21.12c1,2,14.32,9.14,34.2,18.44,1.68.78,3.38,1.61,5.15,2.41,12.47,5.66,27.19,11.52,41.31,16.84C119,19.44,126.18,22,132.76,24.5c7,2.64,13.28,5.09,19.45,7.26,4.5,1.59,9,3.27,13.63,5,8,3,16.86,6.65,26.8,11.08,3.84,1.71,7.72,3.44,11.65,5.07,9.73,4.07,19,7.45,27.29,11a269.4,269.4,0,0,1,24.57,12c2.79,1.53,5.61,3.17,8.49,4.86,14,8.21,29.45,18.06,43.41,29.17,14.82,11.8,28.51,28.16,35.46,38.17"/><path class="cls-43" d="M34.76-21.94c1.42,1.31,15,7.7,35,16.58,1.68.74,3.39,1.54,5.15,2.31C87.4,2.38,102,8.14,116,13.49c7.52,2.9,14.61,5.53,21.1,8.1,6.9,2.74,13.09,5.32,19.16,7.64,4.43,1.7,8.82,3.49,13.42,5.36,7.89,3.2,16.61,6.94,26.46,11.39,3.8,1.72,7.65,3.43,11.56,5,9.68,4,18.93,7.25,27.24,10.64,8.63,3.52,16.56,7.13,24.66,11.4,2.8,1.47,5.63,3,8.52,4.68,14.06,7.94,29.46,17.61,43.28,28.66a175.58,175.58,0,0,1,34.66,38.43"/><path class="cls-44" d="M38.7-22.77c1.84.58,15.72,6.24,35.73,14.7,1.68.71,3.39,1.47,5.16,2.2C92.09-.65,106.65,5,120.5,10.39,128,13.3,135,16,141.38,18.66c6.81,2.84,12.91,5.55,18.87,8,4.37,1.81,8.67,3.7,13.2,5.67,7.77,3.37,16.37,7.24,26.13,11.7,3.76,1.73,7.59,3.44,11.48,5,9.62,3.95,18.85,7,27.17,10.26C246.88,62.63,254.85,66,263,70.1c2.81,1.4,5.65,2.92,8.55,4.5,14.1,7.66,29.48,17.17,43.16,28.16,14.67,11.77,27.77,28.2,33.85,38.67"/><path class="cls-45" d="M42.59-23.64c2.25-.15,16.42,4.79,36.5,12.83,1.68.67,3.4,1.4,5.16,2.1,12.52,5,27,10.56,40.72,16,7.38,2.93,14.33,5.68,20.65,8.44,6.73,2.93,12.72,5.77,18.59,8.39,4.29,1.92,8.52,3.93,13,6,7.64,3.53,16.14,7.54,25.8,12,3.72,1.73,7.52,3.43,11.39,5C224,51,233.17,54,241.52,57c8.65,3.14,16.67,6.31,24.83,10.21,2.83,1.34,5.68,2.79,8.58,4.31,14.15,7.39,29.5,16.73,43.05,27.66,14.58,11.76,27.39,28.23,33,38.92"/><path class="cls-46" d="M46.42-24.49c2.67-.88,17.12,3.33,37.27,11,1.69.64,3.41,1.33,5.17,2,12.53,4.79,26.92,10.29,40.52,15.69,7.31,2.94,14.19,5.75,20.42,8.6,6.64,3,12.54,6,18.3,8.77,4.22,2,8.37,4.14,12.76,6.3,7.51,3.71,15.89,7.84,25.46,12.34,3.69,1.73,7.45,3.43,11.31,5,9.5,3.84,18.69,6.64,27.06,9.5,8.66,3,16.72,5.92,24.92,9.62,2.83,1.28,5.69,2.67,8.61,4.13,14.19,7.12,29.51,16.29,42.92,27.16,14.51,11.75,27,28.24,32.24,39.17"/><path class="cls-47" d="M50.19-25.31c3.09-1.6,17.82,1.88,38,9.08,1.69.6,3.41,1.26,5.17,1.9,12.54,4.57,26.86,9.93,40.32,15.4,7.25,3,14,5.83,20.2,8.77,6.56,3.13,12.36,6.23,18,9.15,4.15,2.13,8.23,4.35,12.54,6.61,7.38,3.87,15.65,8.14,25.12,12.65,3.65,1.74,7.4,3.43,11.23,5,9.45,3.79,18.61,6.44,27,9.13,8.67,2.77,16.78,5.5,25,9,2.85,1.21,5.72,2.54,8.64,3.95A219.39,219.39,0,0,1,324.22,92c14.48,11.77,26.65,28.25,31.49,39.4"/><path class="cls-48" d="M53.87-26.1c3.5-2.33,18.52.43,38.8,7.21,1.7.56,3.42,1.19,5.18,1.8C110.41-12.75,124.64-7.49,138-2c7.18,3,13.91,5.91,20,8.94,6.47,3.23,12.16,6.47,17.72,9.53,4.08,2.24,8.08,4.57,12.32,6.93,7.25,4,15.41,8.44,24.78,13,3.62,1.75,7.33,3.43,11.15,4.94,9.39,3.73,18.52,6.24,26.94,8.74,8.68,2.59,16.83,5.1,25.1,8.44,2.86,1.14,5.74,2.41,8.67,3.76a201.91,201.91,0,0,1,42.68,26.15c14.34,11.72,26.26,28.28,30.63,39.67"/><path class="cls-49" d="M57.5-26.87c3.92-3.07,19.23-1,39.58,5.33,1.69.53,3.42,1.12,5.18,1.7C114.83-15.72,129-10.55,142.18-5c7.11,3,13.77,6,19.75,9.11,6.38,3.33,12,6.7,17.44,9.9,4,2.36,7.93,4.79,12.1,7.25,7.13,4.2,15.16,8.74,24.44,13.28,3.59,1.75,7.27,3.43,11.07,4.91,9.33,3.67,18.44,6,26.88,8.37,8.69,2.39,16.89,4.69,25.19,7.84,2.87,1.07,5.76,2.28,8.7,3.57a187.44,187.44,0,0,1,42.56,25.66c14.26,11.71,25.89,28.3,29.82,39.92"/><path class="cls-50" d="M61-27.64c4.33-3.79,19.92-2.48,40.34,3.45,1.7.5,3.43,1,5.19,1.6,12.58,3.91,26.66,9,39.72,14.53,7,3,13.63,6.06,19.53,9.27C172.1,4.64,177.6,8.14,183,11.5c3.93,2.46,7.78,5,11.88,7.56,7,4.36,14.92,9,24.11,13.59,3.54,1.76,7.2,3.43,11,4.89,9.27,3.62,18.36,5.84,26.82,8,8.7,2.21,17,4.29,25.28,7.24,2.88,1,5.78,2.16,8.72,3.39a172.8,172.8,0,0,1,42.45,25.16c14.18,11.69,25.51,28.32,29,40.17"/><path class="cls-51" d="M64.46-28.42c4.74-4.52,20.63-3.93,41.11,1.59,1.7.45,3.43,1,5.2,1.49A355,355,0,0,1,150.28-11.1a206.33,206.33,0,0,1,19.31,9.44C175.8,1.87,181.2,5.5,186.45,9c3.86,2.57,7.64,5.23,11.66,7.88a231.87,231.87,0,0,0,23.76,13.87c3.51,1.76,7.14,3.42,10.9,4.86,9.22,3.56,18.28,5.64,26.76,7.61,8.71,2,17,3.89,25.37,6.65,2.89,1,5.8,2,8.76,3.21,14.41,5.75,29.58,14.09,42.32,24.65,14.1,11.69,25.14,28.34,28.21,40.42"/><path class="cls-52" d="M67.79-29.25c5.16-5.25,21.32-5.38,41.87-.29,1.71.42,3.44.91,5.21,1.39a297.8,297.8,0,0,1,39.31,14,184,184,0,0,1,19.08,9.61c6.13,3.63,11.43,7.39,16.58,11,3.78,2.68,7.49,5.44,11.44,8.19a199,199,0,0,0,23.44,14.22,104.81,104.81,0,0,0,10.81,4.88c9.16,3.5,18.2,5.44,26.71,7.23,8.71,1.84,17.05,3.48,25.45,6,2.9.89,5.83,1.91,8.78,3,14.47,5.48,29.6,13.64,42.21,24.15,14,11.67,24.76,28.36,27.4,40.67"/><path class="cls-53" d="M71-30c5.58-6,22-6.83,42.65-2.17,1.71.39,3.44.84,5.21,1.3A253.71,253.71,0,0,1,158-17.25a164,164,0,0,1,18.9,9.78c6,3.73,11.24,7.62,16.29,11.42,3.71,2.79,7.34,5.66,11.22,8.5A173,173,0,0,0,227.48,27a100.21,100.21,0,0,0,10.73,4.83c9.1,3.44,18.11,5.23,26.64,6.85,8.73,1.65,17.12,3.07,25.54,5.46,2.92.81,5.85,1.77,8.82,2.84,14.51,5.2,29.61,13.2,42.09,23.65,13.93,11.66,24.38,28.37,26.59,40.91"/><path class="cls-54" d="M74.1-30.9c6-6.71,22.73-8.28,43.41-4,1.72.35,3.45.77,5.22,1.19a223.78,223.78,0,0,1,38.91,13.37,147.24,147.24,0,0,1,18.63,10,186.1,186.1,0,0,1,16,11.79c3.64,2.9,7.2,5.88,11,8.82A153.13,153.13,0,0,0,230,25.08a94.06,94.06,0,0,0,10.64,4.8c9.05,3.39,18,5,26.59,6.47,8.74,1.46,17.17,2.67,25.63,4.86,2.93.76,5.87,1.65,8.85,2.66,14.55,4.93,29.62,12.77,42,23.15,13.85,11.65,24,28.4,25.78,41.16"/><path class="cls-55" d="M77.07-31.83c6.4-7.43,23.43-9.72,44.18-5.91,1.71.32,3.45.7,5.22,1.09a198.07,198.07,0,0,1,38.71,13.09,133.24,133.24,0,0,1,18.41,10.11A171.41,171.41,0,0,1,199.3-1.25c3.57,3,7,6.09,10.79,9.14a138.1,138.1,0,0,0,22.42,15.16,85.59,85.59,0,0,0,10.56,4.78c9,3.33,18,4.84,26.54,6.09,8.74,1.28,17.22,2.27,25.71,4.27,2.94.69,5.9,1.53,8.88,2.48,14.59,4.65,29.64,12.32,41.85,22.64,13.82,11.61,23.63,28.44,25,41.44"/><path class="cls-56" d="M79.87-32.82C86.69-41,104-44,124.82-40.6c1.72.28,3.46.62,5.22,1a177.26,177.26,0,0,1,38.52,12.8,123.42,123.42,0,0,1,18.21,10.26A160.06,160.06,0,0,1,202.2-4c3.49,3.11,6.9,6.31,10.56,9.45a125.59,125.59,0,0,0,22.11,15.48,80.38,80.38,0,0,0,10.46,4.81c8.93,3.27,17.88,4.64,26.47,5.71,8.76,1.09,17.28,1.86,25.81,3.67,2.95.63,5.91,1.39,8.9,2.3,14.64,4.38,29.66,11.88,41.73,22.14C361.93,71.2,371.5,88,372.42,101.23"/><path class="cls-57" d="M82.59-33.9c7.23-8.89,24.83-12.62,45.71-9.65,1.73.24,3.47.55,5.24.88a160.63,160.63,0,0,1,38.33,12.51,115.65,115.65,0,0,1,17.95,10.44A150.38,150.38,0,0,1,205-6.79c3.42,3.23,6.76,6.53,10.35,9.77a115,115,0,0,0,21.74,15.77,74.78,74.78,0,0,0,10.39,4.73c8.88,3.22,17.8,4.44,26.42,5.33s17.33,1.46,25.89,3.08c3,.56,5.94,1.28,8.94,2.11,14.68,4.11,29.66,11.45,41.61,21.65,13.6,11.61,22.87,28.45,23.36,41.91"/><path class="cls-58" d="M85.13-35.07c7.65-9.61,25.54-14.07,46.48-11.53,1.73.21,3.48.49,5.24.79A146,146,0,0,1,175-33.6,107.1,107.1,0,0,1,192.7-23a140.84,140.84,0,0,1,14.85,13.3c3.35,3.34,6.61,6.75,10.13,10.09A106.19,106.19,0,0,0,239.1,16.52a68.48,68.48,0,0,0,10.31,4.71c8.81,3.16,17.71,4.24,26.35,5s17.39,1,26,2.49c3,.49,6,1.14,9,1.92,14.73,3.83,29.68,11,41.49,21.15,13.52,11.6,22.5,28.47,22.56,42.16"/><path class="cls-59" d="M87.51-36.34c8.06-10.35,26.23-15.52,47.25-13.4,1.73.17,3.48.41,5.24.68a133.35,133.35,0,0,1,37.92,11.93,99.63,99.63,0,0,1,17.51,10.78A133.55,133.55,0,0,1,210-12.67c3.28,3.45,6.46,7,9.91,10.4A98.38,98.38,0,0,0,241,14.15a63.78,63.78,0,0,0,10.22,4.69c8.76,3.11,17.64,4,26.3,4.58s17.45.64,26.07,1.89c3,.43,6,1,9,1.74,14.79,3.53,29.7,10.57,41.38,20.64,13.44,11.6,22.12,28.49,21.75,42.41"/><path class="cls-60" d="M89.7-37.73c8.48-11.08,26.94-17,48-15.28,1.74.14,3.49.35,5.25.58a123.34,123.34,0,0,1,37.72,11.64,95.66,95.66,0,0,1,17.3,11,129.85,129.85,0,0,1,14.28,14.06c3.19,3.56,6.31,7.18,9.68,10.71a91.55,91.55,0,0,0,20.75,16.74,60.52,60.52,0,0,0,10.19,4.67c8.7,3,17.55,3.85,26.24,4.2s17.5.23,26.15,1.29q4.5.55,9,1.56c14.83,3.26,29.71,10.13,41.25,20.14C368.87,55.12,377.26,72,376.46,86.19"/><path class="cls-61" d="M91.71-39.25C100.6-51,119.35-57.66,140.49-56.4c1.74.11,3.5.28,5.26.48a114.07,114.07,0,0,1,37.52,11.35,88.74,88.74,0,0,1,17,11.12,124.81,124.81,0,0,1,14,14.44c3.13,3.67,6.18,7.39,9.47,11A87,87,0,0,0,244.2,9.05a56.41,56.41,0,0,0,10.05,4.7c8.64,3,17.47,3.65,26.18,3.82s17.56-.17,26.24.7a89.22,89.22,0,0,1,9.06,1.38c14.87,3,29.7,9.71,41.13,19.63,13.25,11.6,21.38,28.54,20.14,42.91"/><path class="cls-62" d="M93.52-40.9c9.35-12.53,28.35-19.85,49.55-19,1.74.07,3.5.21,5.26.38a105.91,105.91,0,0,1,37.32,11.06A83.69,83.69,0,0,1,202.48-37.2a118.65,118.65,0,0,1,13.71,14.81c3.05,3.78,6,7.61,9.25,11.35,5.48,6.32,12,12.63,20.07,17.37a54.26,54.26,0,0,0,10,4.62c8.59,2.94,17.4,3.39,26.12,3.44s17.62-.58,26.34.1a86.42,86.42,0,0,1,9.08,1.2c14.91,2.7,29.72,9.26,41,19.13,13.18,11.59,21,28.55,19.34,43.16"/><path class="cls-63" d="M95.13-42.7C104.85-56,124.18-64,145.45-63.6c1.74,0,3.5.13,5.26.28a98.16,98.16,0,0,1,37.16,10.77A79.21,79.21,0,0,1,204.48-41.1a115.71,115.71,0,0,1,13.39,15.19c3,3.89,5.88,7.83,9,11.66,5.36,6.5,11.78,12.94,19.73,17.69A51.39,51.39,0,0,0,256.49,8c8.53,2.88,17.32,3.25,26.06,3.06s17.68-1,26.42-.49a84.47,84.47,0,0,1,9.12,1c15,2.43,29.73,8.82,40.89,18.63,13.1,11.57,20.63,28.57,18.53,43.41"/><path class="cls-64" d="M96.53-44.66c10.13-14,29.75-22.7,51.08-22.77q2.63,0,5.28.18A92,92,0,0,1,189.8-56.77a75.06,75.06,0,0,1,16.39,11.62,111.57,111.57,0,0,1,13.13,15.57c2.9,4,5.73,8,8.81,12,5.23,6.66,11.54,13.23,19.39,18A48.63,48.63,0,0,0,257.33,5c8.47,2.83,17.24,3.06,26,2.68s17.73-1.38,26.5-1.08a82.48,82.48,0,0,1,9.15.82c15,2.17,29.75,8.39,40.77,18.14,13,11.55,20.25,28.58,17.72,43.65"/><path class="cls-65" d="M97.71-46.78c10.54-14.72,30.45-24.16,51.85-24.64,1.75,0,3.52,0,5.28.07a86.34,86.34,0,0,1,36.72,10.2,71.71,71.71,0,0,1,16.16,11.78,109.79,109.79,0,0,1,12.84,16c2.83,4.1,5.58,8.26,8.59,12.29,5.1,6.83,11.3,13.53,19.06,18.32a45.75,45.75,0,0,0,9.73,4.51c8.41,2.77,17.15,2.87,25.94,2.3s17.78-1.79,26.6-1.68a82.6,82.6,0,0,1,9.17.64c15,1.89,29.77,7.94,40.66,17.64,12.93,11.54,19.87,28.6,16.91,43.9"/><path class="cls-66" d="M98.66-49.07c11-15.45,31.16-25.62,52.62-26.52,1.76-.07,3.52-.08,5.29,0a81.32,81.32,0,0,1,36.51,9.91,68.41,68.41,0,0,1,15.94,12,106.21,106.21,0,0,1,12.55,16.25c2.77,4.21,5.44,8.48,8.38,12.6C235-17.83,241-11,248.67-6.2a43.3,43.3,0,0,0,9.64,4.53C266.67,1,275.39,1,284.2.25S302-1.94,310.88-2a80.92,80.92,0,0,1,9.21.46c15.08,1.62,29.78,7.5,40.53,17.13,12.85,11.53,19.5,28.63,16.11,44.16"/><path class="cls-67" d="M99.38-51.55c11.38-16.17,31.87-27.07,53.39-28.39s43.52,7,57.32,21.61c8.39,8.9,13.69,19.69,20.42,29.62S246.13-9.19,258.46-5.25c16.65,5.32,34.9-.8,52.6-1.33,18.24-.54,36.87,5.39,49.65,16.91S379.87,39,376,54.75"/></g></g></g></svg>