<svg xmlns="http://www.w3.org/2000/svg" xmlns:xlink="http://www.w3.org/1999/xlink" viewBox="0 0 459.35 412.59"><defs><style>.cls-1,.cls-10,.cls-11,.cls-12,.cls-13,.cls-14,.cls-15,.cls-16,.cls-17,.cls-18,.cls-19,.cls-20,.cls-21,.cls-22,.cls-23,.cls-24,.cls-25,.cls-26,.cls-27,.cls-28,.cls-29,.cls-30,.cls-31,.cls-32,.cls-33,.cls-34,.cls-35,.cls-36,.cls-37,.cls-38,.cls-39,.cls-40,.cls-41,.cls-42,.cls-43,.cls-44,.cls-45,.cls-46,.cls-47,.cls-48,.cls-49,.cls-50,.cls-51,.cls-52,.cls-53,.cls-54,.cls-55,.cls-56,.cls-57,.cls-58,.cls-59,.cls-6,.cls-60,.cls-61,.cls-62,.cls-63,.cls-64,.cls-65,.cls-66,.cls-67,.cls-68,.cls-69,.cls-7,.cls-8,.cls-9{fill:none;}.cls-2{isolation:isolate;}.cls-3{fill:url(#linear-gradient);}.cls-4{mix-blend-mode:color-dodge;}.cls-5{clip-path:url(#clip-path);}.cls-10,.cls-11,.cls-12,.cls-13,.cls-14,.cls-15,.cls-16,.cls-17,.cls-18,.cls-19,.cls-20,.cls-21,.cls-22,.cls-23,.cls-24,.cls-25,.cls-26,.cls-27,.cls-28,.cls-29,.cls-30,.cls-31,.cls-32,.cls-33,.cls-34,.cls-35,.cls-36,.cls-37,.cls-38,.cls-39,.cls-40,.cls-41,.cls-42,.cls-43,.cls-44,.cls-45,.cls-46,.cls-47,.cls-48,.cls-49,.cls-50,.cls-51,.cls-52,.cls-53,.cls-54,.cls-55,.cls-56,.cls-57,.cls-58,.cls-59,.cls-6,.cls-60,.cls-61,.cls-62,.cls-63,.cls-64,.cls-65,.cls-66,.cls-67,.cls-68,.cls-69,.cls-7,.cls-8,.cls-9{stroke:#ff9c1a;}.cls-10,.cls-11,.cls-12,.cls-14,.cls-15,.cls-16,.cls-17,.cls-18,.cls-19,.cls-20,.cls-21,.cls-22,.cls-23,.cls-24,.cls-25,.cls-26,.cls-27,.cls-28,.cls-29,.cls-30,.cls-31,.cls-32,.cls-33,.cls-34,.cls-35,.cls-36,.cls-37,.cls-38,.cls-39,.cls-40,.cls-41,.cls-42,.cls-43,.cls-44,.cls-45,.cls-46,.cls-47,.cls-48,.cls-49,.cls-50,.cls-51,.cls-52,.cls-53,.cls-54,.cls-55,.cls-56,.cls-57,.cls-58,.cls-59,.cls-6,.cls-60,.cls-61,.cls-62,.cls-63,.cls-64,.cls-65,.cls-66,.cls-67,.cls-68,.cls-69,.cls-7,.cls-8,.cls-9{stroke-miterlimit:10;}.cls-6{stroke-width:3px;}.cls-7{stroke-width:2.96px;opacity:0.99;}.cls-8{stroke-width:2.92px;opacity:0.98;}.cls-9{stroke-width:2.87px;opacity:0.97;}.cls-10{stroke-width:2.83px;opacity:0.96;}.cls-11{stroke-width:2.79px;opacity:0.94;}.cls-12{stroke-width:2.75px;opacity:0.93;}.cls-13{stroke-miterlimit:10;stroke-width:2.71px;opacity:0.92;}.cls-14{stroke-width:2.66px;opacity:0.91;}.cls-15{stroke-width:2.62px;opacity:0.9;}.cls-16{stroke-width:2.58px;opacity:0.89;}.cls-17{stroke-width:2.54px;opacity:0.88;}.cls-18{stroke-width:2.49px;opacity:0.87;}.cls-19{stroke-width:2.45px;opacity:0.86;}.cls-20{stroke-width:2.41px;opacity:0.84;}.cls-21{stroke-width:2.37px;opacity:0.83;}.cls-22{stroke-width:2.33px;opacity:0.82;}.cls-23{stroke-width:2.28px;opacity:0.81;}.cls-24{stroke-width:2.24px;opacity:0.8;}.cls-25{stroke-width:2.2px;opacity:0.79;}.cls-26{stroke-width:2.16px;opacity:0.78;}.cls-27{stroke-width:2.12px;opacity:0.77;}.cls-28{stroke-width:2.07px;opacity:0.76;}.cls-29{stroke-width:2.03px;opacity:0.74;}.cls-30{stroke-width:1.99px;opacity:0.73;}.cls-31{stroke-width:1.95px;opacity:0.72;}.cls-32{stroke-width:1.91px;opacity:0.71;}.cls-33{stroke-width:1.86px;opacity:0.7;}.cls-34{stroke-width:1.82px;opacity:0.69;}.cls-35{stroke-width:1.78px;opacity:0.68;}.cls-36{stroke-width:1.74px;opacity:0.67;}.cls-37{stroke-width:1.69px;opacity:0.66;}.cls-38{stroke-width:1.65px;opacity:0.64;}.cls-39{stroke-width:1.61px;opacity:0.63;}.cls-40{stroke-width:1.57px;opacity:0.62;}.cls-41{stroke-width:1.53px;opacity:0.61;}.cls-42{stroke-width:1.48px;opacity:0.6;}.cls-43{stroke-width:1.44px;opacity:0.59;}.cls-44{stroke-width:1.4px;opacity:0.58;}.cls-45{stroke-width:1.36px;opacity:0.57;}.cls-46{stroke-width:1.32px;opacity:0.56;}.cls-47{stroke-width:1.27px;opacity:0.54;}.cls-48{stroke-width:1.23px;opacity:0.53;}.cls-49{stroke-width:1.19px;opacity:0.52;}.cls-50{stroke-width:1.15px;opacity:0.51;}.cls-51{stroke-width:1.11px;opacity:0.5;}.cls-52{stroke-width:1.06px;opacity:0.49;}.cls-53{stroke-width:1.02px;opacity:0.48;}.cls-54{stroke-width:0.98px;opacity:0.47;}.cls-55{stroke-width:0.94px;opacity:0.46;}.cls-56{stroke-width:0.89px;opacity:0.44;}.cls-57{stroke-width:0.85px;opacity:0.43;}.cls-58{stroke-width:0.81px;opacity:0.42;}.cls-59{stroke-width:0.77px;opacity:0.41;}.cls-60{stroke-width:0.73px;opacity:0.4;}.cls-61{stroke-width:0.68px;opacity:0.39;}.cls-62{stroke-width:0.64px;opacity:0.38;}.cls-63{stroke-width:0.6px;opacity:0.37;}.cls-64{stroke-width:0.56px;opacity:0.36;}.cls-65{stroke-width:0.52px;opacity:0.34;}.cls-66{stroke-width:0.47px;opacity:0.33;}.cls-67{stroke-width:0.43px;opacity:0.32;}.cls-68{stroke-width:0.39px;opacity:0.31;}.cls-69{stroke-width:0.35px;opacity:0.3;}</style><linearGradient id="linear-gradient" x1="111.53" y1="325.3" x2="296.86" y2="12.98" gradientTransform="translate(10.73 10.73)" gradientUnits="userSpaceOnUse"><stop offset="0" stop-color="#ce941d"/><stop offset="1" stop-color="#ff0d97"/></linearGradient><clipPath id="clip-path"><rect class="cls-1" x="134.04" y="27.33" width="175.72" height="281.54" transform="translate(53.8 390.01) rotate(-90)"/></clipPath></defs><title>Ресурс 1</title><g class="cls-2"><g id="Слой_2" data-name="Слой 2"><g id="OBJECTS"><rect class="cls-3" x="134.04" y="27.33" width="175.72" height="281.54" transform="translate(53.8 390.01) rotate(-90)"/><g class="cls-4"><g class="cls-5"><path class="cls-6" d="M378.89,411.09c-23.32-1.26-48.29-16.32-66.11-28.7a183.58,183.58,0,0,1-47.94-48.22c-10.15-15.17-17.67-31.67-28.59-46.42-10.49-14.18-25.88-26.11-44.34-31.36-21.35-6.07-41.7.95-61.56,7.83-19.64,6.79-39.48,10.08-60.22,5.52-19.16-4.22-36.84-14-48.92-27.8-22-25.23-26-63.62-10-95.92"/><path class="cls-7" d="M10.84,140.58c-14.33,29-11.85,63.15,5.8,87.77a78.23,78.23,0,0,0,4.92,6.17c12.1,13.64,29.7,23.27,48.72,27.52a94.05,94.05,0,0,0,29.64,1.74A135.15,135.15,0,0,0,130,257.06c7.17-2.4,14.41-4.82,21.74-6.62,12.76-3.15,25.8-4.44,39.26-.58a80,80,0,0,1,14.74,5.91,88.38,88.38,0,0,1,29.47,25.06c8.14,10.79,14.43,22.52,21.31,34,2.36,3.93,4.79,7.83,7.39,11.65a187.48,187.48,0,0,0,47.82,47.72c17.74,12.36,42.42,27.45,65.3,28.95"/><path class="cls-8" d="M10.67,135.4c-13.91,28.27-11.14,61.7,6.57,85.9,1.53,2.09,3.18,4.12,4.93,6.07,12.11,13.42,29.63,22.95,48.52,27.23a94.91,94.91,0,0,0,29.41,1.9,134.54,134.54,0,0,0,29.79-6.33c7.1-2.29,14.26-4.6,21.52-6.31,12.63-3,25.56-4.14,38.93-.26A81.07,81.07,0,0,1,205,249.48a89.46,89.46,0,0,1,29.41,24.68c8.15,10.6,14.48,22.12,21.4,33.4,2.37,3.86,4.81,7.7,7.42,11.46a191.21,191.21,0,0,0,47.7,47.22c17.65,12.35,42,27.48,64.49,29.2"/><path class="cls-9" d="M10.76,130.48c-13.5,27.54-10.44,60.24,7.33,84,1.54,2.06,3.19,4.06,4.94,6,12.12,13.2,29.56,22.63,48.32,26.94a96.19,96.19,0,0,0,29.19,2.07,133.77,133.77,0,0,0,29.49-6c7-2.18,14.12-4.38,21.31-6,12.5-2.82,25.32-3.84,38.59.06a83,83,0,0,1,14.57,5.85,90.48,90.48,0,0,1,29.34,24.3c8.17,10.42,14.55,21.72,21.49,32.81,2.39,3.8,4.84,7.58,7.45,11.28a196.3,196.3,0,0,0,47.58,46.72C327.94,370.89,352,386,374.05,388"/><path class="cls-10" d="M11.09,125.8A78.85,78.85,0,0,0,19.19,208q2.31,3,4.94,5.87c12.13,13,29.49,22.31,48.12,26.65a97.2,97.2,0,0,0,29,2.24,133.23,133.23,0,0,0,29.21-5.58c7-2.08,14-4.17,21.09-5.68,12.37-2.65,25.07-3.55,38.25.37a85.19,85.19,0,0,1,14.49,5.83,91.53,91.53,0,0,1,29.29,23.93c8.17,10.22,14.59,21.31,21.57,32.2,2.4,3.74,4.86,7.46,7.48,11.1a200.9,200.9,0,0,0,47.46,46.22c17.5,12.32,41.3,27.51,62.89,29.7"/><path class="cls-11" d="M11.65,121.36c-12.67,26.08-9,57.33,8.87,80.27a74.68,74.68,0,0,0,4.95,5.77c12.14,12.77,29.42,22,47.92,26.36a98.27,98.27,0,0,0,28.73,2.41,132.79,132.79,0,0,0,28.93-5.2c6.88-2,13.82-3.95,20.87-5.37,12.24-2.48,24.83-3.24,37.91.69a86.7,86.7,0,0,1,14.4,5.81,92.63,92.63,0,0,1,29.23,23.54c8.19,10,14.66,20.91,21.67,31.62,2.4,3.67,4.88,7.32,7.51,10.91,12.61,17.16,28.87,32.71,47.34,45.72,17.42,12.31,40.92,27.53,62.07,29.95"/><path class="cls-12" d="M12.44,117.15C.18,142.5,4.12,173,22.07,195.55c1.55,1.95,3.21,3.84,5,5.67,12.15,12.54,29.36,21.67,47.72,26.07a99.9,99.9,0,0,0,28.51,2.57A132.47,132.47,0,0,0,131.9,225c6.81-1.86,13.68-3.73,20.65-5,12.12-2.32,24.59-3,37.57,1a88.25,88.25,0,0,1,14.32,5.79,93.81,93.81,0,0,1,29.17,23.16c8.21,9.85,14.71,20.5,21.76,31,2.41,3.61,4.9,7.2,7.54,10.73,12.65,16.89,28.89,32.27,47.22,45.22,17.34,12.29,40.54,27.55,61.27,30.19"/><path class="cls-13" d="M13.44,113.16C1.6,137.79,5.83,167.58,23.85,189.68c1.55,1.92,3.21,3.78,5,5.57C41,207.58,58.1,216.61,76.33,221a101.63,101.63,0,0,0,28.29,2.75A132.26,132.26,0,0,0,133,219.33c6.74-1.75,13.53-3.51,20.43-4.73,12-2.16,24.35-2.65,37.24,1.31a90.75,90.75,0,0,1,14.23,5.77A94.75,94.75,0,0,1,234,244.46c8.23,9.64,14.76,20.1,21.84,30.43,2.43,3.54,4.92,7.07,7.57,10.55,12.69,16.61,28.9,31.82,47.1,44.71,17.26,12.28,40.16,27.57,60.46,30.44"/><path class="cls-14" d="M14.66,109.39C3.23,133.28,7.8,162.31,25.83,184c1.56,1.88,3.21,3.7,5,5.46C43,201.61,60,210.54,78.12,215a103,103,0,0,0,28.06,2.92,132,132,0,0,0,28.06-4.07c6.67-1.64,13.39-3.3,20.21-4.42,11.87-2,24.11-2.35,36.91,1.63a93.53,93.53,0,0,1,14.15,5.74,96.26,96.26,0,0,1,29.05,22.41c8.25,9.45,14.82,19.69,21.93,29.83,2.44,3.48,4.95,7,7.6,10.36,12.74,16.34,28.92,31.39,47,44.21,17.18,12.28,39.79,27.6,59.66,30.7"/><path class="cls-15" d="M16.08,105.82C5.07,129,9.93,157.29,28,178.6c1.57,1.84,3.22,3.63,5,5.36,12.18,11.9,29.15,20.72,47.11,25.2A104.28,104.28,0,0,0,108,212.24a132.07,132.07,0,0,0,27.78-3.69c6.59-1.53,13.23-3.07,20-4.1,11.74-1.82,23.86-2,36.57,2a95,95,0,0,1,14.06,5.72,97.82,97.82,0,0,1,29,22c8.26,9.26,14.88,19.29,22,29.24,2.45,3.41,5,6.82,7.63,10.18,12.78,16.07,28.93,30.94,46.86,43.71,17.1,12.26,39.41,27.61,58.85,30.94"/><path class="cls-16" d="M17.7,102.45c-10.6,22.44-5.44,50,12.71,70.91,1.57,1.8,3.22,3.57,5,5.26,12.17,11.7,29.08,20.41,46.92,24.91a106.29,106.29,0,0,0,27.61,3.25,132.13,132.13,0,0,0,27.49-3.31c6.52-1.43,13.09-2.86,19.77-3.79,11.61-1.65,23.62-1.75,36.23,2.26a97.72,97.72,0,0,1,14,5.7,99.55,99.55,0,0,1,28.94,21.64c8.28,9.07,14.94,18.89,22.11,28.65,2.46,3.34,5,6.69,7.66,10,12.82,15.8,28.95,30.5,46.74,43.21,17,12.25,39,27.63,58,31.2"/><path class="cls-17" d="M19.51,99.28C9.32,121,14.78,147.83,33,168.31c1.57,1.77,3.22,3.5,5,5.16C50.15,185,67,193.56,84.69,198.1a108.64,108.64,0,0,0,27.39,3.41,131.74,131.74,0,0,0,27.2-2.94c6.45-1.31,12.94-2.63,19.55-3.47,11.48-1.48,23.38-1.44,35.89,2.58a103.19,103.19,0,0,1,42.78,26.94c8.3,8.87,15,18.48,22.2,28,2.47,3.28,5,6.57,7.69,9.81,12.87,15.53,29,30.06,46.62,42.71,16.94,12.23,38.66,27.65,57.24,31.44"/><path class="cls-18" d="M21.5,96.29c-9.77,21-4,47.09,14.24,67.16,1.58,1.73,3.23,3.43,5,5.06,12.19,11.27,29,19.77,46.52,24.34a111.23,111.23,0,0,0,27.17,3.58,132.87,132.87,0,0,0,26.91-2.56c6.38-1.21,12.8-2.42,19.33-3.16,11.36-1.32,23.14-1.15,35.56,2.89a106.4,106.4,0,0,1,42.64,26.54c8.31,8.68,15,18.07,22.28,27.46,2.49,3.21,5,6.44,7.72,9.63,12.91,15.25,29,29.61,46.5,42.2,16.86,12.22,38.29,27.67,56.43,31.69"/><path class="cls-19" d="M23.66,93.48c-9.35,20.26-3.31,45.63,15,65.29,1.58,1.69,3.24,3.36,5,4.95,12.2,11.06,28.88,19.45,46.32,24.05a112.91,112.91,0,0,0,26.94,3.75,133.35,133.35,0,0,0,26.62-2.18c6.31-1.1,12.65-2.2,19.12-2.84,11.22-1.16,22.9-.85,35.22,3.2a109.23,109.23,0,0,1,13.73,5.63,105.67,105.67,0,0,1,28.76,20.51c8.33,8.49,15.1,17.67,22.37,26.86,2.5,3.15,5.06,6.32,7.75,9.45,13,15,29,29.13,46.39,41.7,16.8,12.17,37.91,27.69,55.62,31.94"/><path class="cls-20" d="M26,90.84c-8.94,19.53-2.6,44.17,15.78,63.41,1.58,1.66,3.24,3.29,5,4.86C59,170,75.59,178.24,92.89,182.87a115.93,115.93,0,0,0,26.72,3.91,134.16,134.16,0,0,0,26.33-1.8c6.24-1,12.51-2,18.9-2.53,11.1-1,22.66-.54,34.88,3.52a112.67,112.67,0,0,1,13.65,5.61,108.15,108.15,0,0,1,28.71,20.13C250.41,220,257.23,229,264.53,238c2.51,3.08,5.08,6.18,7.78,9.26,13,14.7,29.05,28.69,46.27,41.2,16.72,12.15,37.53,27.71,54.82,32.19"/><path class="cls-21" d="M28.48,88.37C20,107.16,26.58,131.07,45,149.9c1.59,1.62,3.25,3.22,5,4.75C62.25,165.28,78.78,173.47,96,178.13a120.47,120.47,0,0,0,26.49,4.08,137.66,137.66,0,0,0,26.05-1.43c6.16-.89,12.36-1.75,18.68-2.21,11-.79,22.41-.24,34.55,3.84A117.34,117.34,0,0,1,215.28,188a111,111,0,0,1,28.65,19.75c8.35,8.11,15.21,16.86,22.54,25.67,2.52,3,5.1,6.07,7.81,9.08,13,14.44,29.06,28.25,46.15,40.7,16.64,12.14,37.16,27.73,54,32.44"/><path class="cls-22" d="M31.12,86c-8.12,18.07-1.19,41.25,17.31,59.67,1.59,1.58,3.25,3.15,5,4.65,12.23,10.41,28.68,18.5,45.72,23.18a123.66,123.66,0,0,0,26.27,4.25,139,139,0,0,0,25.76-1c6.09-.78,12.21-1.53,18.46-1.89,10.84-.63,22.17.05,34.21,4.15a120.42,120.42,0,0,1,13.48,5.56,113.86,113.86,0,0,1,28.59,19.37c8.36,7.91,15.27,16.45,22.63,25.08,2.54,3,5.12,5.94,7.84,8.89,13.06,14.19,29.08,27.8,46,40.2,16.56,12.12,36.78,27.75,53.2,32.69"/><path class="cls-23" d="M33.9,83.87c-7.7,17.34-.48,39.78,18.08,57.79,1.59,1.55,3.26,3.08,5,4.55,12.24,10.19,28.61,18.18,45.52,22.89a127.53,127.53,0,0,0,26,4.42,140.64,140.64,0,0,0,25.47-.67c6-.68,12.07-1.31,18.24-1.58,10.72-.46,21.93.35,33.88,4.46a128.87,128.87,0,0,1,13.4,5.55,116.77,116.77,0,0,1,28.52,19c8.38,7.72,15.33,16,22.72,24.48,2.55,2.89,5.14,5.81,7.87,8.71,13.1,13.92,29.1,27.36,45.91,39.7,16.49,12.1,36.41,27.76,52.4,32.94"/><path class="cls-24" d="M36.81,81.83c-7.28,16.62.23,38.33,18.85,55.92,1.6,1.51,3.27,3,5,4.45,12.25,10,28.54,17.86,45.31,22.6a131.7,131.7,0,0,0,25.82,4.59A143.62,143.62,0,0,0,157,169.1c6-.57,11.92-1.1,18-1.27a91.77,91.77,0,0,1,33.54,4.78,132.62,132.62,0,0,1,13.31,5.52,120.42,120.42,0,0,1,28.47,18.61c8.39,7.53,15.38,15.64,22.81,23.89,2.56,2.83,5.16,5.69,7.9,8.53,13.14,13.64,29.11,26.91,45.79,39.19,16.41,12.09,36,27.79,51.59,33.19"/><path class="cls-25" d="M39.86,79.93c-6.87,15.89.93,36.86,19.61,54,1.61,1.47,3.27,2.94,5,4.34,12.25,9.77,28.47,17.55,45.11,22.32a136.69,136.69,0,0,0,25.6,4.75,146,146,0,0,0,24.9.09c5.87-.47,11.77-.88,17.8-.95a94,94,0,0,1,33.2,5.09,140.63,140.63,0,0,1,13.23,5.5,124.53,124.53,0,0,1,28.41,18.23c8.4,7.34,15.44,15.23,22.9,23.29,2.57,2.77,5.18,5.57,7.92,8.35,13.19,13.37,29.14,26.47,45.67,38.69,16.34,12.08,35.66,27.8,50.79,33.44"/><path class="cls-26" d="M43,78.16c-6.45,15.15,1.64,35.4,20.39,52.17,1.6,1.44,3.27,2.87,5,4.24,12.27,9.55,28.41,17.23,44.92,22a141.52,141.52,0,0,0,25.37,4.92,148.81,148.81,0,0,0,24.62.46c5.8-.35,11.61-.66,17.58-.63a96.57,96.57,0,0,1,32.86,5.41c4.48,1.6,8.87,3.46,13.15,5.47a129.63,129.63,0,0,1,28.35,17.85c8.41,7.15,15.49,14.83,23,22.7,2.58,2.7,5.21,5.44,8,8.16,13.23,13.11,29.15,26,45.55,38.2s35.28,27.82,50,33.68"/><path class="cls-27" d="M46.3,76.5c-6,14.42,2.35,33.94,21.15,50.3,1.61,1.4,3.28,2.8,5,4.14,12.28,9.33,28.35,16.91,44.72,21.74a147.83,147.83,0,0,0,25.15,5.09,153.1,153.1,0,0,0,24.32.84c5.73-.25,11.48-.44,17.37-.32A99.39,99.39,0,0,1,216.57,164c4.44,1.61,8.81,3.46,13.07,5.45a135,135,0,0,1,28.29,17.48c8.43,6.95,15.55,14.42,23.07,22.1,2.59,2.63,5.23,5.31,8,8,13.27,12.83,29.17,25.58,45.43,37.69s34.9,27.84,49.17,33.94"/><path class="cls-28" d="M49.68,75c-5.62,13.7,3.06,32.48,21.92,48.42,1.62,1.37,3.29,2.74,5.05,4,12.29,9.11,28.27,16.59,44.52,21.45a154.8,154.8,0,0,0,24.92,5.25,157.13,157.13,0,0,0,24,1.22c5.65-.14,11.32-.22,17.14,0a102.9,102.9,0,0,1,32.19,6c4.41,1.62,8.74,3.46,13,5.43a140.43,140.43,0,0,1,28.24,17.1c8.44,6.76,15.6,14,23.16,21.51,2.6,2.57,5.25,5.18,8,7.79,13.32,12.56,29.19,25.14,45.31,37.19s34.53,27.86,48.37,34.19"/><path class="cls-29" d="M53.16,73.51c-5.21,13,3.76,31,22.69,46.55,1.62,1.33,3.29,2.66,5.05,3.94,12.3,8.9,28.21,16.27,44.32,21.16a162,162,0,0,0,24.7,5.42,161.64,161.64,0,0,0,23.75,1.6c5.58,0,11.18,0,16.92.31a106.6,106.6,0,0,1,31.86,6.35c4.37,1.62,8.67,3.46,12.89,5.41A147.26,147.26,0,0,1,263.52,181c8.45,6.57,15.66,13.62,23.25,20.92,2.61,2.5,5.27,5.06,8,7.61,13.36,12.29,29.21,24.69,45.2,36.69s34.15,27.88,47.56,34.43"/><path class="cls-30" d="M56.73,72.16c-4.79,12.24,4.47,29.56,23.46,44.67,1.62,1.3,3.29,2.6,5.06,3.84,12.31,8.69,28.14,16,44.11,20.88a171.64,171.64,0,0,0,24.48,5.59,166.84,166.84,0,0,0,23.46,2c5.51.08,11,.22,16.71.63a110.63,110.63,0,0,1,31.51,6.66c4.34,1.63,8.61,3.46,12.82,5.39a154.7,154.7,0,0,1,28.11,16.33c8.47,6.38,15.72,13.21,23.34,20.32,2.63,2.44,5.29,4.94,8.08,7.43,13.4,12,29.21,24.25,45.07,36.19s33.78,27.9,46.75,34.68"/><path class="cls-31" d="M60.38,70.9C56,82.41,65.56,99,84.61,113.7c1.62,1.26,3.3,2.52,5.06,3.74,12.33,8.47,28.08,15.64,43.92,20.58a179.68,179.68,0,0,0,24.25,5.76A173.29,173.29,0,0,0,181,146.13c5.44.18,10.88.44,16.48.94a115.86,115.86,0,0,1,31.18,7c4.3,1.64,8.55,3.46,12.73,5.37a163.6,163.6,0,0,1,28.06,16c8.48,6.19,15.77,12.8,23.42,19.73,2.64,2.37,5.32,4.81,8.11,7.24C314.44,214.09,330.23,226.15,346,238S379.35,266,391.9,273"/><path class="cls-32" d="M64.11,69.72c-4,10.78,5.88,26.64,25,40.93,1.63,1.22,3.31,2.45,5.07,3.63,12.34,8.26,28,15.32,43.72,20.3a192.25,192.25,0,0,0,24,5.92,180.93,180.93,0,0,0,22.9,2.73c5.36.29,10.73.66,16.26,1.26a120.9,120.9,0,0,1,30.84,7.3c4.27,1.63,8.49,3.45,12.65,5.34a173.75,173.75,0,0,1,28,15.57,284.41,284.41,0,0,1,23.51,19.13c2.65,2.31,5.34,4.69,8.14,7.07,13.49,11.47,29.25,23.36,44.83,35.18,15.78,12,33,27.94,45.14,35.18"/><path class="cls-33" d="M67.91,68.61c-3.55,10.06,6.58,25.18,25.75,39.06,1.64,1.18,3.32,2.38,5.08,3.53,12.35,8,27.94,15,43.52,20a207,207,0,0,0,23.8,6.09,189.71,189.71,0,0,0,22.6,3.11c5.3.4,10.59.87,16.05,1.57a127.71,127.71,0,0,1,30.5,7.61c4.23,1.64,8.42,3.45,12.57,5.32a186.71,186.71,0,0,1,27.94,15.19,284.53,284.53,0,0,1,23.6,18.54c2.66,2.25,5.36,4.56,8.16,6.88,13.54,11.2,29.27,22.92,44.72,34.68,15.7,12,32.65,28,44.33,35.43"/><path class="cls-34" d="M71.76,67.57c-3.13,9.33,7.29,23.72,26.53,37.18,1.63,1.15,3.32,2.31,5.08,3.43,12.36,7.83,27.87,14.69,43.32,19.72a223,223,0,0,0,23.57,6.26,200.62,200.62,0,0,0,22.32,3.49c5.22.5,10.44,1.09,15.82,1.88a135,135,0,0,1,30.17,7.93c4.2,1.65,8.36,3.45,12.49,5.3a200.67,200.67,0,0,1,27.88,14.81,281,281,0,0,1,23.69,18c2.67,2.17,5.38,4.43,8.19,6.69,13.57,10.93,29.28,22.48,44.6,34.18,15.62,11.94,32.27,28,43.52,35.68"/><path class="cls-35" d="M75.67,66.59C73,75.18,83.66,88.85,103,101.9c1.64,1.11,3.33,2.24,5.09,3.32,12.37,7.61,27.8,14.37,43.12,19.44,8.19,2.72,16,4.76,23.35,6.42a210.45,210.45,0,0,0,22,3.86c5.15.62,10.29,1.31,15.6,2.21A143.27,143.27,0,0,1,242,145.39c4.15,1.66,8.29,3.45,12.39,5.27a217.61,217.61,0,0,1,27.83,14.44A277.22,277.22,0,0,1,306,182.45c2.69,2.11,5.41,4.3,8.23,6.51,13.62,10.66,29.3,22,44.47,33.68,15.55,11.92,31.9,28,42.73,35.93"/><path class="cls-36" d="M79.62,65.66c-2.31,7.86,8.69,20.8,28.06,33.43,1.64,1.07,3.33,2.17,5.1,3.23,12.38,7.39,27.73,14.05,42.91,19.14,8.13,2.74,15.87,4.84,23.13,6.59,7.66,1.86,14.75,3.25,21.74,4.24,5.08.73,10.14,1.53,15.39,2.52a154.2,154.2,0,0,1,29.49,8.56c4.12,1.66,8.23,3.45,12.32,5.25a240.51,240.51,0,0,1,27.76,14.06,276,276,0,0,1,23.87,16.75c2.69,2,5.42,4.18,8.25,6.33C331.3,196.15,347,207.35,362,218.93c15.46,11.91,31.52,28,41.91,36.18"/><path class="cls-37" d="M83.61,64.77c-1.89,7.14,9.4,19.34,28.82,31.56,1.65,1,3.34,2.1,5.11,3.12,12.39,7.18,27.66,13.74,42.71,18.86,8.06,2.75,15.73,4.91,22.9,6.76,7.58,2,14.58,3.47,21.46,4.62,5,.83,10,1.74,15.17,2.83a167,167,0,0,1,29.16,8.87c4.08,1.67,8.16,3.45,12.23,5.23a266.05,266.05,0,0,1,27.7,13.68,275,275,0,0,1,24,16.16c2.71,2,5.45,4,8.28,6.14,13.71,10.12,29.33,21.15,44.24,32.68,15.38,11.89,31.14,28,41.11,36.43"/><path class="cls-38" d="M87.63,63.91c-1.48,6.41,10.1,17.89,29.59,29.69,1.65,1,3.34,2,5.11,3,12.4,7,27.6,13.42,42.52,18.57,8,2.77,15.59,5,22.67,6.93,7.49,2,14.39,3.7,21.17,5,4.94.94,9.85,2,14.95,3.15a183.53,183.53,0,0,1,28.82,9.19c4,1.67,8.1,3.44,12.15,5.2,10.08,4.41,19.49,8.68,27.65,13.3a275.36,275.36,0,0,1,24,15.57c2.72,1.92,5.47,3.92,8.31,6,13.75,9.84,29.35,20.71,44.12,32.17,15.3,11.88,30.77,28,40.3,36.68"/><path class="cls-39" d="M91.67,63.09C90.6,68.77,102.47,79.52,122,90.9c1.65,1,3.35,2,5.11,2.92a298.91,298.91,0,0,0,42.32,18.28c7.92,2.79,15.45,5.07,22.45,7.1,7.41,2.14,14.2,3.93,20.88,5.37,4.87,1.05,9.7,2.18,14.73,3.46a203.2,203.2,0,0,1,28.49,9.5c4,1.69,8,3.45,12.06,5.19,10,4.35,19.42,8.47,27.59,12.92a273,273,0,0,1,24.13,15c2.73,1.85,5.49,3.8,8.34,5.78,13.8,9.57,29.37,20.26,44,31.67,15.22,11.87,30.4,28.07,39.5,36.93"/><path class="cls-40" d="M95.72,62.28c-.65,5,11.51,15,31.13,25.94,1.66.93,3.36,1.9,5.12,2.82a333.31,333.31,0,0,0,42.12,18c7.85,2.81,15.31,5.15,22.22,7.27,7.33,2.24,14,4.16,20.6,5.75,4.79,1.15,9.55,2.4,14.51,3.78a227.39,227.39,0,0,1,28.15,9.81c4,1.69,8,3.44,12,5.16,10,4.3,19.33,8.27,27.53,12.54a273.8,273.8,0,0,1,24.22,14.38c2.74,1.79,5.51,3.67,8.37,5.59,13.84,9.3,29.38,19.83,43.88,31.17,15.14,11.86,30,28.09,38.69,37.18"/><path class="cls-41" d="M99.78,61.49C99.55,65.72,112,75,131.68,85.56c1.66.89,3.36,1.82,5.13,2.72A386.45,386.45,0,0,0,178.72,106c7.79,2.82,15.17,5.22,22,7.43,7.24,2.34,13.84,4.39,20.31,6.13,4.72,1.26,9.41,2.61,14.29,4.09a261.19,261.19,0,0,1,27.82,10.13c3.94,1.69,7.9,3.44,11.89,5.14,9.91,4.24,19.26,8.07,27.47,12.16a273.22,273.22,0,0,1,24.31,13.78c2.75,1.73,5.54,3.55,8.4,5.41,13.88,9,29.4,19.38,43.76,30.67C394,212.76,408.61,229,416.85,238.35"/><path class="cls-42" d="M103.84,60.71c.18,3.49,12.91,12.06,32.67,22.19,1.66.86,3.36,1.75,5.13,2.62,12.45,6.09,27.33,12.14,41.72,17.41,7.72,2.84,15,5.3,21.77,7.6,7.15,2.44,13.65,4.62,20,6.5,4.65,1.38,9.26,2.84,14.08,4.41,8.28,2.71,17.34,6,27.47,10.45,3.91,1.7,7.84,3.44,11.81,5.11,9.85,4.19,19.18,7.87,27.42,11.79A272.63,272.63,0,0,1,330.32,162c2.77,1.66,5.56,3.42,8.43,5.23,13.93,8.76,29.42,18.94,43.64,30.17,15,11.82,29.27,28.13,37.08,37.67"/><path class="cls-43" d="M107.89,59.92c.59,2.77,13.61,10.61,33.43,20.32,1.67.82,3.37,1.68,5.14,2.51,12.46,5.88,27.26,11.84,41.51,17.13,7.65,2.86,14.89,5.37,21.55,7.76,7.07,2.54,13.47,4.86,19.74,6.89,4.58,1.48,9.11,3,13.85,4.72,8.15,2.88,17.1,6.35,27.14,10.76,3.87,1.71,7.78,3.44,11.73,5.1,9.79,4.12,19.09,7.65,27.35,11.4a272.64,272.64,0,0,1,24.49,12.59c2.77,1.6,5.58,3.3,8.46,5,14,8.49,29.43,18.5,43.52,29.67,14.9,11.81,28.89,28.15,36.27,37.93"/><path class="cls-44" d="M111.9,59.13c1,2,14.32,9.14,34.2,18.44,1.68.78,3.38,1.61,5.15,2.41,12.47,5.66,27.19,11.52,41.31,16.84,7.59,2.87,14.75,5.45,21.33,7.93,7,2.64,13.28,5.09,19.45,7.26,4.5,1.59,9,3.27,13.63,5,8,3,16.86,6.65,26.8,11.08,3.84,1.71,7.72,3.44,11.65,5.07,9.73,4.07,19,7.45,27.29,11a269.82,269.82,0,0,1,24.57,12c2.79,1.53,5.61,3.17,8.49,4.86,14,8.21,29.45,18.06,43.41,29.17,14.82,11.8,28.51,28.16,35.46,38.17"/><path class="cls-45" d="M115.89,58.31c1.42,1.31,15,7.7,35,16.58,1.68.74,3.39,1.54,5.15,2.31,12.49,5.43,27.13,11.19,41.12,16.54,7.52,2.9,14.61,5.53,21.1,8.1,6.9,2.74,13.09,5.32,19.16,7.64,4.43,1.7,8.82,3.49,13.42,5.36,7.89,3.2,16.61,6.94,26.46,11.39,3.8,1.72,7.65,3.43,11.56,5,9.68,4,18.93,7.25,27.24,10.64,8.63,3.52,16.56,7.13,24.66,11.4,2.8,1.47,5.63,3.05,8.52,4.68,14.06,7.94,29.46,17.61,43.28,28.66a175.55,175.55,0,0,1,34.66,38.43"/><path class="cls-46" d="M119.83,57.48c1.84.58,15.72,6.24,35.73,14.7,1.68.71,3.39,1.47,5.16,2.2,12.5,5.22,27.06,10.88,40.91,16.26,7.45,2.91,14.48,5.61,20.88,8.27,6.81,2.84,12.91,5.55,18.87,8,4.37,1.81,8.67,3.7,13.2,5.67,7.77,3.37,16.37,7.24,26.13,11.7,3.76,1.73,7.59,3.44,11.48,5,9.62,3.95,18.85,7,27.17,10.26,8.65,3.34,16.62,6.72,24.75,10.81,2.81,1.4,5.65,2.92,8.55,4.5,14.1,7.66,29.48,17.17,43.16,28.16,14.67,11.77,27.77,28.2,33.85,38.67"/><path class="cls-47" d="M123.72,56.61c2.25-.15,16.42,4.79,36.5,12.83,1.68.67,3.4,1.4,5.16,2.1,12.52,5,27,10.56,40.72,16,7.38,2.93,14.33,5.68,20.65,8.44,6.73,2.93,12.72,5.77,18.59,8.39,4.29,1.92,8.52,3.93,13,6,7.64,3.53,16.14,7.54,25.8,12,3.72,1.73,7.52,3.43,11.39,5,9.56,3.9,18.77,6.85,27.12,9.89,8.65,3.14,16.67,6.31,24.83,10.21,2.83,1.34,5.68,2.79,8.58,4.31,14.15,7.39,29.5,16.73,43.05,27.66,14.58,11.76,27.39,28.23,33,38.92"/><path class="cls-48" d="M127.55,55.76c2.67-.88,17.12,3.33,37.27,10.95,1.69.64,3.41,1.33,5.17,2C182.52,73.5,196.91,79,210.51,84.4c7.31,2.94,14.19,5.75,20.42,8.6,6.64,3,12.54,6,18.3,8.77,4.22,2,8.37,4.14,12.76,6.3,7.51,3.71,15.89,7.84,25.46,12.34,3.69,1.73,7.45,3.43,11.31,5,9.5,3.84,18.69,6.64,27.06,9.5,8.66,3,16.72,5.92,24.92,9.62,2.83,1.28,5.69,2.67,8.61,4.13,14.19,7.12,29.51,16.29,42.92,27.16,14.51,11.75,27,28.24,32.24,39.17"/><path class="cls-49" d="M131.32,54.94c3.09-1.6,17.82,1.88,38,9.08,1.69.6,3.41,1.26,5.17,1.9,12.54,4.57,26.86,9.93,40.32,15.4,7.25,3,14.05,5.83,20.2,8.77,6.56,3.13,12.36,6.23,18,9.15,4.15,2.13,8.23,4.35,12.54,6.61,7.38,3.87,15.65,8.14,25.12,12.65,3.65,1.74,7.4,3.43,11.23,5,9.45,3.79,18.61,6.44,27,9.13,8.67,2.77,16.78,5.5,25,9,2.85,1.21,5.72,2.54,8.64,3.95a219.54,219.54,0,0,1,42.81,26.65C419.83,184,432,200.48,436.84,211.63"/><path class="cls-50" d="M135,54.15c3.5-2.33,18.52.43,38.8,7.21,1.7.56,3.42,1.19,5.18,1.8,12.56,4.34,26.79,9.6,40.12,15.1,7.18,3,13.91,5.91,20,8.94,6.47,3.23,12.16,6.47,17.72,9.53,4.08,2.24,8.08,4.57,12.32,6.93,7.25,4,15.41,8.44,24.78,13,3.62,1.75,7.33,3.43,11.15,4.94,9.39,3.73,18.52,6.24,26.94,8.74,8.68,2.59,16.83,5.1,25.1,8.44,2.86,1.14,5.74,2.41,8.67,3.76a201.73,201.73,0,0,1,42.68,26.15c14.34,11.72,26.26,28.28,30.63,39.67"/><path class="cls-51" d="M138.63,53.38c3.92-3.07,19.23-1,39.58,5.33,1.69.53,3.42,1.12,5.18,1.7,12.57,4.12,26.72,9.29,39.92,14.81,7.11,3,13.77,6,19.75,9.11,6.38,3.33,12,6.7,17.44,9.9,4,2.36,7.93,4.79,12.1,7.25,7.13,4.2,15.16,8.74,24.44,13.28,3.59,1.75,7.27,3.43,11.07,4.91,9.33,3.67,18.44,6,26.88,8.37,8.69,2.39,16.89,4.69,25.19,7.84,2.87,1.07,5.76,2.28,8.7,3.57,14.32,6.3,29.55,15,42.56,25.66,14.26,11.71,25.89,28.3,29.82,39.92"/><path class="cls-52" d="M142.16,52.61c4.33-3.79,19.92-2.48,40.34,3.45,1.7.5,3.43,1,5.19,1.6,12.58,3.91,26.66,9,39.72,14.53,7,3,13.63,6.06,19.53,9.27,6.29,3.43,11.79,6.93,17.15,10.29,3.93,2.46,7.78,5,11.88,7.56,7,4.36,14.92,9,24.11,13.59,3.54,1.76,7.2,3.43,11,4.89,9.27,3.62,18.36,5.84,26.82,8,8.7,2.21,16.95,4.29,25.28,7.24,2.88,1,5.78,2.16,8.72,3.39a172.74,172.74,0,0,1,42.45,25.16c14.18,11.69,25.51,28.32,29,40.17"/><path class="cls-53" d="M145.59,51.83c4.74-4.52,20.63-3.93,41.11,1.59,1.7.45,3.43,1,5.2,1.49a353.8,353.8,0,0,1,39.51,14.24,204.7,204.7,0,0,1,19.31,9.44c6.21,3.53,11.61,7.16,16.86,10.66,3.86,2.57,7.64,5.23,11.66,7.88A234.07,234.07,0,0,0,303,111c3.51,1.76,7.14,3.42,10.9,4.86,9.22,3.56,18.28,5.64,26.76,7.61,8.71,2,17,3.89,25.37,6.65,2.89,1,5.8,2,8.76,3.21,14.41,5.75,29.58,14.09,42.32,24.65,14.1,11.69,25.14,28.34,28.21,40.42"/><path class="cls-54" d="M148.92,51c5.16-5.25,21.32-5.38,41.87-.29,1.71.42,3.44.91,5.21,1.39a297.72,297.72,0,0,1,39.31,14,182.29,182.29,0,0,1,19.08,9.61c6.13,3.63,11.43,7.39,16.58,11,3.78,2.68,7.49,5.44,11.44,8.19a198.4,198.4,0,0,0,23.44,14.22A106.67,106.67,0,0,0,316.66,114c9.16,3.5,18.2,5.44,26.71,7.23,8.71,1.84,17.05,3.48,25.45,6,2.9.89,5.83,1.91,8.78,3,14.47,5.48,29.6,13.64,42.21,24.15,14,11.67,24.76,28.36,27.4,40.67"/><path class="cls-55" d="M152.13,50.22c5.58-6,22-6.83,42.65-2.17,1.71.39,3.44.84,5.21,1.3A254.26,254.26,0,0,1,239.1,63,164.19,164.19,0,0,1,258,72.78c6,3.73,11.24,7.62,16.29,11.42,3.71,2.79,7.34,5.66,11.22,8.5a173,173,0,0,0,23.1,14.54,100.1,100.1,0,0,0,10.73,4.83c9.1,3.44,18.11,5.23,26.64,6.85,8.73,1.65,17.12,3.07,25.54,5.46,2.92.81,5.85,1.77,8.82,2.84,14.51,5.2,29.61,13.2,42.09,23.65,13.93,11.66,24.38,28.37,26.59,40.91"/><path class="cls-56" d="M155.23,49.35c6-6.71,22.73-8.28,43.41-4,1.72.35,3.45.77,5.22,1.19a223.52,223.52,0,0,1,38.91,13.37,147.72,147.72,0,0,1,18.63,9.95,187.63,187.63,0,0,1,16,11.79c3.64,2.9,7.2,5.88,11,8.82a153.57,153.57,0,0,0,22.76,14.86,94,94,0,0,0,10.64,4.8c9.05,3.39,18,5,26.59,6.47,8.74,1.46,17.17,2.67,25.63,4.86,2.93.76,5.87,1.65,8.85,2.66,14.55,4.93,29.62,12.77,42,23.15,13.85,11.65,24,28.4,25.78,41.16"/><path class="cls-57" d="M158.2,48.42c6.4-7.43,23.43-9.72,44.18-5.91,1.71.32,3.45.7,5.22,1.09a198.25,198.25,0,0,1,38.71,13.09A133.72,133.72,0,0,1,264.72,66.8,172.06,172.06,0,0,1,280.43,79c3.57,3,7.05,6.09,10.79,9.14a137.84,137.84,0,0,0,22.42,15.16,85.48,85.48,0,0,0,10.56,4.78c9,3.33,18,4.84,26.54,6.09,8.74,1.28,17.22,2.27,25.71,4.27,2.94.69,5.9,1.53,8.88,2.48,14.59,4.65,29.64,12.32,41.85,22.64C441,155.17,450.81,172,452.16,185"/><path class="cls-58" d="M161,47.43c6.82-8.16,24.13-11.18,44.95-7.78,1.72.28,3.46.62,5.22,1a177.56,177.56,0,0,1,38.52,12.8A123.23,123.23,0,0,1,267.9,63.71a160.75,160.75,0,0,1,15.43,12.55c3.49,3.11,6.9,6.31,10.56,9.45A125.58,125.58,0,0,0,316,101.19,79.63,79.63,0,0,0,326.46,106c8.93,3.27,17.88,4.64,26.47,5.71,8.76,1.09,17.28,1.86,25.81,3.67q4.42.94,8.9,2.3c14.64,4.38,29.66,11.88,41.73,22.14,13.69,11.63,23.26,28.44,24.18,41.66"/><path class="cls-59" d="M163.72,46.35c7.23-8.89,24.83-12.62,45.71-9.65,1.73.24,3.47.55,5.24.88A160.53,160.53,0,0,1,253,50.09a115.4,115.4,0,0,1,17.95,10.44,150.49,150.49,0,0,1,15.14,12.93c3.42,3.23,6.76,6.53,10.35,9.77A115.14,115.14,0,0,0,318.18,99a73.61,73.61,0,0,0,10.39,4.73c8.88,3.22,17.8,4.44,26.42,5.33s17.33,1.46,25.89,3.08c3,.56,5.94,1.28,8.94,2.11,14.68,4.11,29.66,11.45,41.61,21.65,13.6,11.61,22.87,28.45,23.36,41.91"/><path class="cls-60" d="M166.26,45.18c7.65-9.61,25.54-14.07,46.48-11.53,1.73.21,3.48.49,5.24.79A146,146,0,0,1,256.1,46.65a107.07,107.07,0,0,1,17.73,10.62,141.43,141.43,0,0,1,14.85,13.3c3.35,3.34,6.61,6.75,10.13,10.09a106,106,0,0,0,21.42,16.11,68.45,68.45,0,0,0,10.31,4.71c8.81,3.16,17.71,4.24,26.35,5s17.39,1,26,2.49c3,.49,6,1.14,9,1.92,14.73,3.83,29.68,11,41.49,21.15,13.52,11.6,22.5,28.47,22.56,42.16"/><path class="cls-61" d="M168.64,43.91c8.06-10.35,26.23-15.52,47.25-13.4,1.73.17,3.48.41,5.24.68a133.44,133.44,0,0,1,37.92,11.93A99.66,99.66,0,0,1,276.56,53.9a133.9,133.9,0,0,1,14.56,13.68c3.28,3.45,6.46,7,9.91,10.4A98.23,98.23,0,0,0,322.11,94.4a64.14,64.14,0,0,0,10.22,4.69c8.76,3.11,17.64,4,26.3,4.58s17.45.64,26.07,1.89c3,.43,6,1,9,1.74,14.79,3.53,29.7,10.57,41.38,20.64,13.44,11.6,22.12,28.49,21.75,42.41"/><path class="cls-62" d="M170.83,42.52c8.48-11.08,26.94-17,48-15.28,1.74.14,3.49.35,5.25.58a123.24,123.24,0,0,1,37.72,11.64A94.94,94.94,0,0,1,279.1,50.41a130.3,130.3,0,0,1,14.28,14.06c3.19,3.56,6.31,7.18,9.68,10.71a91.68,91.68,0,0,0,20.75,16.74A60.34,60.34,0,0,0,334,96.59c8.7,3,17.55,3.85,26.24,4.2s17.5.23,26.15,1.29q4.5.56,9,1.56c14.83,3.26,29.71,10.13,41.25,20.14,13.36,11.59,21.75,28.51,20.95,42.66"/><path class="cls-63" d="M172.84,41c8.89-11.8,27.64-18.41,48.78-17.15,1.74.11,3.5.28,5.26.48A114.08,114.08,0,0,1,264.4,35.68,88.87,88.87,0,0,1,281.45,46.8a123.87,123.87,0,0,1,14,14.44c3.13,3.67,6.18,7.39,9.47,11a86.88,86.88,0,0,0,20.41,17.06A56.51,56.51,0,0,0,335.38,94c8.64,3,17.47,3.65,26.18,3.82s17.56-.17,26.24.7a89.4,89.4,0,0,1,9.06,1.38c14.87,3,29.7,9.71,41.13,19.63,13.25,11.6,21.38,28.54,20.14,42.91"/><path class="cls-64" d="M174.65,39.35C184,26.82,203,19.5,224.2,20.32c1.74.07,3.5.21,5.26.38a105.91,105.91,0,0,1,37.32,11.06,83.72,83.72,0,0,1,16.83,11.29,119.21,119.21,0,0,1,13.71,14.81c3.05,3.78,6,7.61,9.25,11.35,5.48,6.32,12,12.63,20.07,17.37a54.28,54.28,0,0,0,10,4.62c8.59,2.94,17.4,3.39,26.12,3.44s17.62-.58,26.34.1a88.93,88.93,0,0,1,9.08,1.2c14.91,2.7,29.72,9.26,41,19.13,13.18,11.59,21,28.55,19.34,43.16"/><path class="cls-65" d="M176.26,37.55c9.72-13.26,29.05-21.3,50.32-20.9,1.74,0,3.5.13,5.26.28A98.26,98.26,0,0,1,269,27.7a79.23,79.23,0,0,1,16.61,11.45A115.9,115.9,0,0,1,299,54.34c3,3.89,5.88,7.83,9,11.66,5.36,6.5,11.78,12.94,19.73,17.69a51.32,51.32,0,0,0,9.89,4.6c8.53,2.88,17.32,3.25,26.06,3.06s17.68-1,26.42-.49a85.63,85.63,0,0,1,9.12,1c15,2.43,29.73,8.82,40.89,18.63,13.1,11.57,20.63,28.57,18.53,43.41"/><path class="cls-66" d="M177.66,35.59c10.13-14,29.75-22.7,51.08-22.77q2.63,0,5.28.18a91.94,91.94,0,0,1,36.91,10.48A75.34,75.34,0,0,1,287.32,35.1a111.93,111.93,0,0,1,13.13,15.57c2.9,4,5.73,8,8.81,12,5.23,6.66,11.54,13.23,19.39,18a48.56,48.56,0,0,0,9.81,4.57c8.47,2.83,17.24,3.06,26,2.68s17.73-1.38,26.5-1.08a83.13,83.13,0,0,1,9.15.82c15,2.17,29.75,8.39,40.77,18.14,13,11.55,20.25,28.58,17.72,43.65"/><path class="cls-67" d="M178.84,33.47c10.54-14.72,30.45-24.16,51.85-24.64,1.75,0,3.52,0,5.28.07a86.38,86.38,0,0,1,36.72,10.2,71.87,71.87,0,0,1,16.16,11.78,109.16,109.16,0,0,1,12.84,16c2.83,4.1,5.58,8.26,8.59,12.29,5.1,6.83,11.3,13.53,19.06,18.32A45.59,45.59,0,0,0,339.07,82c8.41,2.77,17.15,2.87,25.94,2.3s17.78-1.79,26.6-1.68a83.11,83.11,0,0,1,9.17.64c15,1.89,29.77,7.94,40.66,17.64,12.93,11.54,19.87,28.6,16.91,43.9"/><path class="cls-68" d="M179.79,31.18c11-15.45,31.16-25.62,52.62-26.52,1.76-.07,3.52-.08,5.29,0a81.37,81.37,0,0,1,36.51,9.91,68.48,68.48,0,0,1,15.94,12A105.6,105.6,0,0,1,302.7,42.82c2.77,4.21,5.44,8.48,8.38,12.6,5,7,11.06,13.83,18.72,18.63a43.23,43.23,0,0,0,9.64,4.53c8.36,2.71,17.08,2.67,25.89,1.92s17.84-2.19,26.68-2.27a81.15,81.15,0,0,1,9.21.46c15.08,1.62,29.78,7.5,40.53,17.13,12.85,11.53,19.5,28.63,16.11,44.16"/><path class="cls-69" d="M180.51,28.7C191.89,12.53,212.38,1.63,233.9.31s43.52,7,57.32,21.61c8.39,8.9,13.69,19.69,20.42,29.62S327.26,71.06,339.59,75c16.65,5.32,34.9-.8,52.6-1.33,18.24-.54,36.87,5.39,49.65,16.91S461,119.22,457.14,135"/></g></g></g></g></g></svg>